<?xml version="1.0" encoding="utf-8"?>
<!-- Generator: Adobe Illustrator 19.0.0, SVG Export Plug-In . SVG Version: 6.00 Build 0)  -->
<svg version="1.1" id="Layer_1" xmlns="http://www.w3.org/2000/svg" xmlns:xlink="http://www.w3.org/1999/xlink" x="0px" y="0px"
	 viewBox="0 0 70.5 348.2" style="enable-background:new 0 0 70.5 348.2;" xml:space="preserve">
<style type="text/css">
	.st0{fill-rule:evenodd;clip-rule:evenodd;fill:#231F20;}
</style>
<path id="XMLID_461_" class="st0" d="M31.4,1.3c-0.3-0.1-0.3-0.4-0.6-0.5c-0.1,0.1-0.2,0.3-0.3,0.4C30.4,1,30.4,0.6,30,0.6
	C29.9,0.7,29.8,1,29.5,1c-0.4-0.1-0.5-0.6-1-0.8c-0.7,0.8-2.2-0.1-3,1.1c-0.1-0.2-0.2-0.4-0.4-0.6c-0.7,0.3-1.7,0.7-3.1,0.6
	c-0.3,0.1,0.2,0.4-0.1,0.6c-0.5-0.3-0.8,0-1.1,0.4C20.2,2,19.6,1.8,19,1.6c-0.1-0.4,0-0.5-0.1-0.9c-1.1-0.3-1.4,1-2.4,0.2
	c-0.2,0.7-0.8,0.6-1.1,0.9c-0.8-1-1.8,0-2.7,0.3c-0.5,0.1-0.4-0.4-0.8-0.4c0,0.3-0.5,0.1-0.5,0.4c-0.4-0.4-1.4-0.6-1.6-0.2
	C9,1.7,8.4,1.6,7.6,1.6C8,1.7,7.3,1.8,7.2,1.9C6.9,1.8,6.7,1.5,6.4,1.3C6.1,2,5.5,1.7,5.2,2.3C5,2.3,5.1,2,5,2
	C4.6,2.5,3.8,2.8,3.3,2.4C3.2,2.8,2.5,2.9,2.1,3.2c0.2,0.7-0.5,0.7-0.7,1.4c-0.3,0-0.2-0.2-0.4,0C0.7,5.5,0.7,6.8,0.4,7.7
	c0.2,0,0.2,0.1,0.2,0.6C0.3,7.9,0.3,9.2,0,9.7c0.8,2.1,0.1,5,0.9,7.2c-0.1,0-0.4,0-0.4,0.1c0.1,0.8,0.5,1.8,0.5,2.9
	C0.7,19.7,0.7,20,0.6,20c0.4,0.7,0.1,1.6,0.3,2.5c0.1,0.5,0.4,0.7,0.5,1.1c0,0.3-0.2,0.7-0.2,1.1c0,0.5,0.3,1,0.1,1.4
	c0.1-0.1-0.1-0.3-0.1-0.3c-0.1,1.2,0.4,2,0.4,3.1c-0.1,0.1-0.2,0.2-0.4,0.2c0.6,1.9,0.2,4.2,0.6,6.4c-0.1-0.1-0.2-0.1-0.4,0
	c0.3,0.3,0.1,0.5,0,1c0.1,0.2,0.4,0.3,0.5,0.7c0.2,3.1,0.1,6.5,0.3,9.7c-0.9,1.3,0.5,3.9-0.2,5.5c0.2,1.6,0.3,3.3,0,4.5
	C2,57,2.2,57,2.1,57.3c0,0.4-0.1,0.7-0.2,1c0.4,0.6,0.3,1.9,0.2,2.5c-0.1,0.7,0.5,1.4,0,1.6c0.4,0.7,0.1,1.6,0.3,2.4
	c0,0.2-0.2,0.3-0.3,0.4c0.4,1.2,0.4,2.6,0,3.7c0.1,1.3,0.5,3.3-0.1,4c0.7,1.5,0.2,4.4,0.6,6.1c-0.1,0.3-0.1,0.6-0.3,0.6
	c0.6,1.7,0.2,4.4,0.3,6.8c0,0.9,0.3,1.8-0.1,2.6c0.6,2.1,0.1,5.7,0.7,7.8c-0.1,4.3,0.5,8,0.7,12.7c-0.1,0.1-0.4,0-0.4,0.2
	c1.5,1.6,0.3,4.4,1.5,6.6c0,0.2-0.2,0.4-0.1,0.7c0.8,0.3,0.6,1.5,0.5,2c-0.2,1.2,0.3,2.1,0.5,3.2c-0.8,1.1-0.2,3.4-0.8,4.4
	c0.3,0.1,0.5,0.2,0.6,0.5c-0.5,0.9,0.4,1.7-0.5,2.1c0.1,0.9,0.5,1.3,0.6,2.4c-0.1-0.1-0.4-0.1-0.4,0.1c0.2,1.9-0.1,3.8,0,5.6
	c0,0.8,0.2,1.7,0.2,2.4c0,0.4-0.2,0.7-0.2,1.1c0,0.5,0.3,0.8,0.3,1.3c0,0.1-0.2,0.1-0.2,0.3c-0.5,2.5,0.3,5.4,0.5,7.8
	c0,0.3-0.2,0.4-0.2,0.7c0,0.2,0.4,0.1,0.4,0.3c-0.8,0.5,0.3,1.5-0.1,2.3c0,0.2,0.4,0.1,0.4,0.4c0,0.3-0.3,0.2-0.3,0.5
	c0.7,0.2,0.5,1.8-0.1,2c0.2,0.5,0,0.4,0,1.1c0.4,0.8,1,2.1,0.6,3.1c-0.1-0.1,0-0.5-0.3-0.5c0.2,1.1,0.2,2.7,0.9,3.6
	c-0.2,1.1,0.2,1.9,0.2,3c0-0.1,0.2-0.2,0.2-0.1c0.1,0.3,0.2,0.9-0.2,1c-0.1-0.3,0.3-0.5-0.1-0.5c-1.2,1.8,0.3,5.2,0.4,7.9
	c0,0.2-0.5,0.1-0.4,0.4c0.1,0,0.4,0,0.4,0.1c0.2,0.9-0.1,1.2,0.6,1.7c-0.1,0.2-0.6-0.1-0.5,0.3c0.3,0.3,0.3,0,0.6,0.1
	c0.1,0.9-1.1,0.4-1,1.3c0.4,0.1-0.1-0.3,0.2-0.3c0.4,0.7-0.1,1.5-0.1,2.1c0.6-0.2,0.9,1.8,0,1.5c0.4,0.4,0.7,1.4,0.2,1.8
	c0.9,0.1-0.2,1.8,0.5,1.8c-0.5,1.6,0,3.6,0,5.5c0.2,0.4,0.6,0.5,0.7,1c-0.5,0.1-0.6,0.5-0.8,1.1c0.4,0,0.2,0.7,0.5,1.1
	c-1.1,0.9,0.4,3.2-0.8,4.1c0.8,0.1,0.6,1.7,0.5,2.7c1,1.5-0.1,3.9,0.6,5c0.1,2.1,0.3,3.3,0,5.2c0.2,0,0.3,0.1,0.3,0.3
	c0.2,6.2,0.5,12.5,1.2,18.2c-0.1,0.3-0.2,0.5-0.3,0.8c0.3,1.3,0.6,2.8,0.3,4.3c0.6,0.5,0.2,1.2,0.3,1.9c0.1,1.1,0.6,2.4,0.2,3.3
	c0.6,0.3,0.1,1,0.2,1.5c0,0.3,0.2,0.5,0.3,0.8c0.4,1.9,0.3,4-0.1,5.4c0.2,0.1,0.4-0.3,0.5,0c0.2,1.9,0.7,4,0.5,5.7
	c0.3,0.1,0.3,0.4,0.4,0.7c-0.1,0.2-0.2,0.3-0.2,0.6c0.5,1,0.5,2.8,0.6,3.9c0.8,6.2,1.5,12.4,2.5,18.8c0,0.3,0.1,0.7,0.1,1.1
	c0.5,5.1,1.6,11.4,2.3,16.6c0.1,0.8,0,1.1,0.6,1.4c0.3-0.4,0-1.1,0.1-1.4c0.5,0.6,0.2,1.3,0.7,2c-0.1,1.6,0.3,3.1,0.7,4.5
	c0.4,2.8,0.7,5.9,1.1,8.7c0.1,0.1,0.4,0.1,0.5,0.3c-0.2,0.2,0.3,0.7-0.1,0.9c1,1.3,0.1,4.4,1.4,5.5c0.6-1.3-0.3-4,0.1-4.9
	c0.4,0.8,0.3,1.6,0.4,2.4c0.2,2.7,0.7,5.4,0.9,8.1c0.1,1.9-0.3,4.3,0.8,5.7c0-1.8-0.5-4.1-0.1-5.7c0.8,1,0.1,2.6,0.5,3.8
	c0.2,0.7,0.8,1,0.9,1.7c0.9,0,0.5-1.3,0.6-1.8c0.1-0.3,0.3-0.5,0.3-0.8c0-0.7-0.2-1.3-0.2-2c0-4.8-0.4-9.5-0.6-14.4
	c0-0.4,0-0.9-0.1-1.3c-0.5-3.4-0.6-7.7-0.9-11.4c0.2,0,0.1,0.3,0.3,0.3c0.2-0.4,0-0.8-0.4-0.9c0.2,0,0-0.4,0.1-0.6
	c0.3,0.5,0.1-0.4,0.3-0.6c-0.3-0.4-0.6-0.1-0.6-0.8c0.2-0.2,0.1,0,0.3,0.1c-0.1-0.6,0.3-1-0.1-1.3c-0.4-0.1-0.2,0.3-0.4,0.4
	c0-0.4-0.1-0.5,0-1.1c0.1,0,0.2,0.1,0.4,0.1c0-0.4-0.3-0.5-0.4-0.9c0.6,0.1-0.3-1.4,0.2-1.4c0.1-0.4-0.5,0.1-0.5-0.4
	c0.4,0,0.3-0.4,0.6-0.5c0.4,2.4,0.8,4.6,1,6.6c0,0.3-0.1,0.6-0.1,1c0.1,1.2,0.8,2.7,0.5,3.9c0.4,0.9,0.5,2.2,0.4,3.2
	c0.5,3.2,0.8,7.1,0.9,10.2c0.1,0.1,0.2,0.3,0.4,0.4c-0.2,0.3,0,1-0.2,1.3c0.6,0.7-0.3,2.5,0.8,2.6c-0.3-2.9-0.5-5.6-0.5-9
	c0.5,3.4,0.6,6.9,0.7,10c0-0.1,0-0.2,0.1-0.1c0,0.4,0,0.8-0.2,1.1c0-0.2,0.1-0.5-0.2-0.4c-0.2,0.1,0,0.7-0.1,1
	c0.3,0.3,0.3-0.3,0.5-0.1c-0.1,0.8,0.2,1-0.1,1.3c-0.3,0,0.1-0.6-0.3-0.5c-0.4,0.3-0.1,0.8-0.1,1.3c0.1,0.1,0.5-0.1,0.5,0.1
	c0.4,3.2,0.1,6.5,0.6,9.4c0.6-0.3,0.2-1,0.2-1.4c0.1-4.5-0.1-10.1-0.1-14.2c0.7,0,0.5,0.9,0.6,1.3c0.1,1.1,0,2.6,0.1,3.8
	c0,0.6,0.2,1.4,0.2,2c-0.1,1.6-0.1,3.5,0,5.1c0,0.4,0.3,0.7,0.3,1.1c0.1,1.7-0.5,3.6,0.5,4.9c0.7-2.2-0.1-4.6,0.8-5.8
	c-0.1-0.5-0.4-1.8,0.4-1.8c-0.1,0.3,0.2,0.9-0.2,1.1c0.6,4.1-0.2,7.7,0.6,12c1.1-0.2,0.2-2.1,1.1-2.6c0-0.8-0.2-1.3-0.2-2.5
	c0.1,0,0.2,0.2,0.3,0.2c-0.2-1.1-0.2-3,0-3.8c-0.5-2-0.2-3.9-0.1-6.1c0-0.4-0.2-0.8-0.2-1.2c0-1.5,0.1-2.8,0.1-4.3
	c0-0.6-0.2-1.1-0.3-1.6c-0.2-2.4,0.1-4.9-0.1-7.1c-0.1-0.7-0.5-1.3-0.1-2c-0.3-0.4-0.4-1.5,0-1.8c-0.2,0.7,0.3,0.8,0.1,1.6
	c0.6,0.4,0.2,1.3,0.2,1.9c0,0.3,0.2,0.5,0.3,0.9c0.1,0.8-0.1,1.8,0,2.7c0.2,1.2,0.2,2.8,0.2,4.2c0,0.6,0.2,1.1,0.3,1.7
	c0.1,1.5-0.1,3-0.1,4.6c0,0.8,0.2,1.7,0.2,2.6c0,2.6,0,5.3,0.4,8.2c0.2,1.6,0.2,3.9,0.3,5.6c0.1,1.4-0.2,2.7,1,2.8
	c0.4-0.5,0.8-1.4,0.9-1.9c0.2,0.5-0.1,1.5,0.6,1.8c0.9-6.4-0.1-11.1,0.6-17.3c0.4,0.4,0.2,0.9,0.6,1.3c0.3,4.9-0.4,9.3,0.4,13.8
	c0.5,0.2,0.4-0.3,0.8-0.3c-0.2,0.5,0.1,0.7,0.4,1.1c0.7-0.4,0.1-2,0.8-2.3c-0.1,0.8-0.2,1.7,0.6,2c0,1.5,0,3.5-0.4,4.9
	c0.3,0.1,0.3,0.6,0.7,0.7c0.9-1,0.5-3,0.9-4.5c0.1-0.5,0.5-0.8,0.5-1.2c0-1,0.1-2.6,0.2-3.3c0.7,0,0.3,1.5,0.3,1.9
	c0.6,0.4-0.2,2,0.4,2.9c0.1-0.4,0.2-0.9,0.4-1.3c-0.4-0.8,0.1-1.7,0.1-2.6c0.1-4.9-0.1-9.2,0.7-13.3c-0.5-0.6-0.1-1,0-1.7
	c-0.3-0.6-0.3-1.3,0.1-1.9c0.1,0.3,0.2,1-0.1,1.1c0.3,0.3,0.2,1.1,0,1.4c0.4,1.5,0.2,3.6,0.2,5.5c0,0.5,0.2,1,0.2,1.5
	c0,2.3-0.6,4.8,0.4,6.8c-0.1,1.5-0.1,3.4,0.3,4.3c0.6-1.1,0.1-2.7,0.7-3.4c0,0.4,0.1,1.1,0.1,1.4c0.1,1-0.1,2.4,0.6,2.8
	c0.6-2,0.5-4.6,0.9-6.5c1.5-0.8-0.1-3.2,1.1-4.5c0.1,0.8,0,2.2-0.1,2.9c-0.1,0.7,0.2,1.3,0.3,2.1c0,0.4-0.2,0.8-0.1,1.1
	c0.1,0.4,0.3,0.7,0.4,1.1c0.1,0.9-0.1,2.1,1,2.4c0.6-1,0.6-2,0.9-3.3c0.4-0.1,0.3,0.5,0.8,0.3c0.6-3.8-0.5-7.9,0.3-11.6
	c-0.2-0.2-0.2-0.7-0.3-1c0.6,0,0.1-0.6,0.5-0.8c0,0.1,0,0.4,0.1,0.4c0-0.7,0-1.4-0.2-1.9c0.3,0,0.1,0.4,0.3,0.4c0-0.4-0.2-0.7,0.2-1
	c0.4,0.9-0.1,2.7,0.5,3.4c0.7-3.1,0-8.5,0-11.7c0-0.4,0.2-1.2,0.4-1.2c-0.3,0.1-0.4-0.7-0.2-0.9c0.5,0.3,0.4,1.3,0.7,1.8
	c0,0.3-0.2,0.3-0.2,0.6c0.7,1.5,0.1,2.8,0.2,4c0,0.5,0.3,0.9,0.3,1.3c0,3.7,0.1,7.7,0.2,11.7c0,1-0.1,1.8,0,2.9
	c0.1,1.1,0.1,3,0.7,3.3c0-0.2-0.1-0.2-0.3-0.2c0.6-0.6,0.3-1.5,0.4-2.3c0.3-5.9,0.2-10.7,0.4-15.7c-0.3-1-0.3-2.6,0.1-3.4
	c-0.6-2.4-0.2-4.9-0.2-6.9c0.2,0.2,0,0.8,0.3,1c-0.2,2.1,0.2,4.9,0,7.3c0,0.3-0.3,0.7-0.3,1.1c0,0,0.3,0,0.3,0.1
	c0,0-0.2,0.1-0.2,0.3c0,0.1,0.3,0.2,0.3,0.3c0-0.2-0.1,0.4-0.1,0.6c0,0.2,0.2,0.4,0.1,0.6c-0.1,0.3-0.2,0.1-0.3,0.4
	c0,0.2,0.3,0.1,0.3,0.3c0,5.4,0.3,10.7,0.6,16.1c1.1-0.7,0-3,0.9-4c0.5,0.5,0.3,1.2,0.9,1.6c0.9-1.3,0.5-3.5,0.6-5.2
	c0.2-4.9-0.1-10.1,0.2-14.6c0.6,1.6,0.1,3.6,0.6,5.2c-0.2,0.1-0.2,0.3-0.2,0.6c0.3,0.9-0.1,2,0,3.1c0,0.2,0.4-0.1,0.3,0.3
	c-0.3,0.6-0.2,1.5,0.2,1.9c0.3-2-0.7-5.3,0.5-6.6c0,1.6,0.1,3.5,0.2,5.3c0.1,1.3-0.3,2.8,0.3,3.5c0.5-0.8,0.1-2.1,0.5-3.1
	c0.1,0.2,0.2,0.4,0.4,0.1c0.1,1.3-0.2,3.2,0.3,4c0.6-0.4,0.2-2.8,0.6-3.8c0.5,0,0.1,0.7,0.5,0.8c0.6-2.1-0.1-4.8,0.6-7
	c-0.3-0.5-0.2-1.3-0.2-2.1c0-1.5,0-3.1,0-3.8c0.4,0.9,0,2.5,0.4,3.5c-0.4,0.6,0,1.7,0,2.5c0,0.8-0.1,1.7,0,2.5
	c0.1,0.5,0.4,0.9,0.4,1.3c0,0.1-0.2,0.2-0.2,0.3c0.1,0.4,0.3,0.8,0.4,1.2c0.1,1-0.1,2.1,0.4,3.1c-0.2-1.2,0.4-2.1,0.5-3.1
	c0.2-2.1-0.3-4.3,0.1-6.2c0.6,0.7-0.4,2.6,0.7,3.1c0.3-1.8,0.3-4.3,0.3-6.1c0-2.7,0-5.4,1.2-7.5c-0.1-0.6-0.1-1.1,0-1.7
	c-0.4-0.1,0.1,0.6-0.4,0.5c0.2-0.5-0.1-0.7,0-1.3c0.2,0.1,0.2,0.2,0.5,0.1c0.5,0.9-0.4,2.2,0.3,3c-0.4,0.3-0.1,1.1-0.6,1.1
	c0.5,0.4,0.4,0.3,0.8,0.7c0-1.5,0.2-2.7-0.1-3.8c0.4-1.6-0.1-4.3,0.3-6.1c-0.6-6.1,0.2-12.5-0.6-18.9c-0.4-0.1-0.2,0.4-0.4,0.5
	c0-0.6,0.1-1.1-0.5-1.3c0.3-0.1,0.5-0.3,0.4-0.9c-0.1-0.2-0.5-0.1-0.5-0.5c0.8-0.1,0.5-1,0.1-1.3c0.8-0.6-0.1-1.6,0.3-2.2
	c0.3,0.1-0.2,0.4,0.1,0.6c0-0.1,0.2-0.1,0.2,0c0.2,1-0.1,2.9,0.3,3.9c0.7-1.1,0-3.9,0.2-5.9c-0.3-0.1,0-0.3-0.3-0.5
	c0.4-0.8,0.3-1.8-0.1-2.7c0.3,0,0.4-0.2,0.4-0.5c-0.1,0-0.3,0-0.3-0.1c-0.4-0.1-0.1,0.5-0.5,0.5c-0.2-0.2-0.1,0-0.3,0.1
	c0.3-0.6,0-0.5-0.1-1.1c0.3-0.1,0.6-0.2,0.9-0.4c-0.4-0.7-1.2-1.6-0.9-3.1c0.2,0.1,0.2,0.3,0.4,0.1c0.1-0.5-0.6-0.2-0.6-0.7
	c0.3-0.5,1-0.1,1.2-0.7c-0.4-0.3-0.9,0.3-1.2,0c0.2-0.5,0.2-0.9,0-1.3c0.4,0.1,0.5-0.4,1-0.3c-0.2-0.7,0.2-1.4-0.3-1.6
	c-0.1,0.3,0,0.8-0.1,1.2c-1-0.4-0.3-1.9-0.2-2.2c0.6,0.1,0.5,0.6,0.6,1.1c0.6-0.3,0.3-1.3,0.2-1.7c-0.1,0.2-0.4,0.2-0.7,0.2
	c-0.2-0.2-0.2-0.5-0.2-1c0.5,0,0.5,0.1,0.9,0c0.1-1.4,0-2.2,0-3.2c-0.8,0.5,0.2,2.8-0.9,3.1c0-0.5-0.4-0.4-0.3-1
	c0.2,0,0.1,0.3,0.3,0.3c0-0.3,0.1-0.3,0.3-0.2c-0.5-1-0.7-2.4-0.4-3.5c-0.7-0.2-0.3-1.1,0.1-1.2c-0.2-0.3-0.3-0.1-0.5-0.4
	c0.3-0.2,0.4-1,0.2-1.3c0,0.2,0.1,0.5-0.2,0.4c-0.1-0.5,0-0.6-0.1-1.1c0.4,0,0.9-0.6,0.5-1.1c-0.2,0.1-0.1,0.3-0.4,0.3
	c0.2-1.5-0.5-2.9,0.3-4.5c0-0.3-0.1-0.6-0.1-1.1c0.3,0.1,0.2,0.4,0.4,0.1c0.3,0.2-0.1-0.2-0.1-0.4c0.2,0,0.4,0,0.4-0.3
	c-0.6-0.5,0.3-2-0.3-3c0.1-1,0.1-1.6,0.1-2.2c-0.5,0-0.5,0-1,0.1c0-0.3-0.4-0.5-0.2-0.8c0.2,0.3,0.4,0.2,0.7,0
	c-0.1,0.1-0.1,0.2,0.1,0.3c0.2-0.4,0.2-0.5-0.1-0.9c-0.1,0.3-0.6,0.2-0.9,0.3c0.2-0.2,0-0.7,0.2-0.9c0.3,0.1-0.2,0.5,0.2,0.5
	c0.2-0.2,0-0.8,0.4-0.9c0.1,0.3-0.1,0.8,0.1,0.9c0.2-0.5,0.1,0.3,0.4,0.2c0-1.4-0.4-1.6-0.2-3.2c-0.6-0.1-0.3,0.6-0.6,0.8
	c-0.1-0.3-0.1-0.3-0.4-0.2c0-0.8-0.2-1-0.2-1.8c0.3,0,0.2-0.3,0.6-0.2c0.2,0-0.1,0.4,0.3,0.3c0-0.7,0.8-3.3-0.6-3.2
	c0.4,0,0.2,0.6,0.4,0.9c-0.2-0.2-0.5,0-0.7,0c-0.1-0.7-0.6-2.3,0.4-2.8c0,0.3,0,0.7,0.3,0.8c0.2-0.7,0-1-0.1-1.5
	c-0.3,0.3-0.4,0.7-0.8,0.9c0.1-0.6-0.5-1.2-0.1-1.5c0,0.2,0.1,0.5,0.2,0.6c0.1-0.9,0-1.5,0-2c0.6,0.2,0.6-0.4,0.9-0.8
	c-0.5-0.8-0.1-2.2-0.2-3.3c0-0.3-0.3-0.6-0.2-0.9c-0.5-0.1-0.3,0.4-0.7,0.5c-0.1-0.3-0.5-0.4-0.5-0.8c0-0.4,0.3,0.1,0.3-0.3
	c-0.6-0.4-0.3-1.3,0-1.8c-0.2-0.4-0.6-0.6-0.6-1.3c0.1-0.3,0.4-0.1,0.4-0.4c0-0.2-0.1-0.7-0.1-1.1c0-0.2-0.4,0.2-0.4-0.2
	c0.1-0.7,0.1-1,0.2-1.5c-0.4-0.6-0.4-3-0.4-4.4c0.2,0.1-0.1,0.7,0.3,0.7c0.1-0.5,0.2-1.1,0.5-1.6c-0.3-0.3-0.5-0.1-0.6-0.5
	c0.2-0.4,0.5-0.4,0.6-1c-0.2,0-0.3,0.2-0.5,0.2c-0.2-0.4-0.8-1.1-0.3-1.5c0.1,0.1-0.1,0.5,0.1,0.5c0.2-0.3,0.1-0.6,0-1
	c0.3-0.1,0.6-0.3,0.8-0.5c-0.5-0.3-0.7-0.4-1.1-0.5c-0.2-1.1,0.6-1.5,1.2-2.2c-0.3,0.5,0.4,0.8,0.3,1.4c-0.1,0-0.1-0.1-0.3-0.1
	c-0.3,0.6,0.8,1.3,0.1,1.7c0.1,0.3,0.6,0.4,0.3,0.9c-0.2,0-0.1-0.3-0.3-0.3c0.1,0.4-0.1,1.2,0.3,1.4c-0.1,0.2-0.4-0.2-0.4,0.2
	c0.2,0.1,0.2,0.3,0.3,0.4c0-0.1,0-0.3,0.1-0.3c-0.1,0.9,0.4,1.5,0.2,2.3c0.1,2,0.3,4.1,0.4,5.9c0,0.4-0.2,0.8-0.2,1.2
	c0,0.1,0.3,0.5,0.3,0.8c0.1,0.7,0.2,1.1,0.6,1.5c0.2,1.9-0.4,2.7-0.5,3.9c0.3,0.2,0.2,1.4,0,1.6c0.5,0.6,0.7,2.1,0.3,3
	c0.8,1.2,0.1,2.7,0.6,4.5c-0.1,0.1-0.4,0-0.3,0.3c0.5,1,0.6,3,0.2,4.2c0.4,0.9,0.2,1.8,0.1,2.6c0,0.3,0.3-0.3,0.3,0
	c0,0.2-0.2,0.3-0.3,0.4c0.4,1.1,0.6,3.3,0.3,5c0.9,2.9,0.1,6.4,0.8,9.8c-0.5,2.3,0.2,4.4,0.2,6.3c0,0.2-0.2,0.3-0.2,0.5
	c0,0.2,0.2,0.6,0.2,0.9c-0.1,0.9-0.2,2.1-0.2,3.1c0,0.4,0,1,0.4,1.3c0.1-0.2,0-0.6,0.3-0.7c0.5,3.3-0.2,7.2,0.2,10.6
	c0,0.2,0.2,0.3,0.2,0.5c-0.3,12.2,0,24.6-0.3,36.5c0.6,1.2,0,3,0.6,4.5c0.3-16.1-0.2-32.7,0.1-48.9c-0.6-7.1-0.2-14.3-0.8-21
	c0.2-0.1,0.2-0.3,0.3-0.5c-0.8-2-0.1-4.3-0.3-6.5c-0.1-0.9-0.4-1.9-0.4-2.9c0-0.8-0.3-1.6-0.2-2.2c0.1-0.9-0.2-1.6-0.2-2.6
	c0-0.8,0.2-1.7,0.1-2.6c-0.2-2.4-0.6-4.8-0.7-7.3c0-0.3,0.1-0.6,0.1-0.9c0-0.3-0.3-0.6-0.3-1c0-0.5,0.2-1,0.2-1.5
	c-0.2-2.3-0.4-4.7-0.4-7c-0.1-0.2-0.3-0.3-0.3-0.7c0.1-3.7-0.3-8.4-0.4-12.3c0.5-0.4,0.1-1.6-0.2-1.9c0.1-0.3,0.4-0.2,0.4-0.6
	c-0.2-2.7,0-4.8-0.4-7c0.2-0.1,0.6,0.1,0.6-0.1c-1-1,0-3.5-0.8-5.2c0.5-2.2,0-4.4-0.2-6.5c0-0.6,0.1-1.3,0.1-1.8
	c-0.1-1.1,0.1-2.4,0.1-3.5c0-0.4-0.3-0.7-0.3-1.1c-0.1-1.7,0-3.4-0.1-5c0-0.9-0.2-2-0.2-2.9c0-1,0.2-2.2,0.1-3.3
	c0-0.4-0.2-0.7-0.2-1.1c0-0.1,0.2-0.3,0.2-0.4c0-0.4-0.3-0.8-0.3-1.1c0-0.2,0.3-0.5,0.3-0.7c0-0.1-0.2-0.3-0.3-0.5
	c-0.2-0.6,0-1.5-0.1-2.2c-0.3-3.9-0.2-7.5-1-10.9c0.5-0.3,0.1-0.6,0.1-1.2c0.2-0.1,0.3,0.3,0.3-0.1c0-1.1-0.5-3.6-0.5-5.3
	c-0.1-0.3-0.2-0.4-0.4-0.4c0-0.2,0.4-0.1,0.3-0.4c-0.5-2.3,0-3.5-0.9-5.5c0-0.2,0.4-0.1,0.3-0.4c-0.7-3.7-0.9-7.8-1.2-11.5
	c0-0.5-0.4-1-0.5-1.4c-0.2-1.6-0.4-3.3-0.2-4.8c-0.1-0.1-0.4-0.1-0.4-0.3c-0.2-4.8-1.1-9.4-1.5-14.1c-0.3-2.6-0.4-5.2-0.6-7.7
	c-0.1-1.3-0.2-2.6-0.6-3.7c0.3-0.6,0-1.4-0.1-2.2c-0.2-3.3-0.7-6.7-0.6-10.4c-0.5-2-0.4-3.9-0.7-6.1c0-0.3,0.3-0.3,0.3-0.5
	c-0.3-0.1-0.3-0.3-0.4-0.6c-0.4-1.5-0.1-4.2-0.5-5.6c-0.1-0.3,0.3-0.2,0.3-0.6c-0.2-0.2-0.3-0.1-0.4-0.2c-0.1-1.9-0.5-3.5-0.3-5.3
	c-0.5-2.2-0.7-5.3,0.3-7.1c-0.3-0.3-0.6,0-0.9-0.4c0.1-0.4,0.3-0.7,0.4-1.1c-0.5-0.4-0.2-1.7-0.7-2.2c0.4-0.6-0.1-1.8,0-2.8
	c-1-0.7-0.1-2,0.1-3c-0.2-0.3-0.3-0.7-0.6-1c0.1-0.4,0.4-0.5,0.4-1c-1.5-0.6-0.9-2.6-1-4.3c0-0.2-0.3-0.4-0.3-0.7
	c-0.1-0.6,0.2-1.2,0.1-1.5c-0.2-0.5-0.8-0.5-1-1.1c0.4-1.4-0.5-2.7-0.2-4.5c-0.3-0.3-0.5-0.7-0.8-1.1c0.4-0.5,0-0.9,0-1.5
	c1.1-0.9-0.3-2.2,0.6-3.3c0-0.3-0.4-0.1-0.3-0.4c0-0.3,0.3-0.3,0.4-0.6c-0.8-0.9-0.8-2.6-2.1-3c0.3-0.3-0.1-0.6-0.1-1
	c1-0.7,0.3-1.9,0.6-3c-0.1-0.2-0.5,0-0.4-0.4c0.4-0.4,0.6-0.5,0.6-1.2c-0.8,0-0.8-0.8-1.5-0.8c-0.1,0,0,0.4-0.2,0.6
	c-0.4-0.4,0-1-0.2-1.7c0.3-0.1,0.6-0.3,0.7-0.7c-0.7-0.6-1.7-0.7-1.4-2.1c0.6-0.1,0.3-0.9,0.5-1.3c-0.4-0.9-1.3-1.1-2.3-0.7
	c0-0.4-0.2-0.7-0.5-0.9c-0.7,0.2-1.2,0.7-1.7,0.3c0.3-0.3,0.5-0.7,0.6-1.1c-0.4-0.4-0.5-0.6-0.9-1c-0.7,0-1.1-0.1-1.6-0.2
	c-0.2,0.4-0.6,0.2-0.9,0.5c-0.3-0.7-0.8-1.2-1.5-1.4c-0.1,0.6-0.3,0.5-0.6,0.7c-0.4-0.6-0.4-1.5-0.6-2.4c-0.8-0.4-1.7-0.2-2.5-0.7
	c-0.2,0.1-0.1,0.5-0.5,0.4c-0.5-0.5-1.4,0.1-2-0.1C35,1.5,33.5,1.1,33,1.7C33,1.4,32,0.7,31.4,1.3L31.4,1.3z M13.9,195.6L13.9,195.6
	c-0.2,0-0.3,0-0.5,0c0-0.4-0.2-0.5-0.2-0.9c-0.2,0-0.2,0.1-0.2,0.3c-0.2,0-0.1-0.3-0.4-0.2c0.2-0.3-0.1-0.6,0-1.1
	c0.4,0,0.3-0.4,0.4-0.6c0.3,0.1,0.3,0.4,0.7,0.2C13.7,194,13.7,194.8,13.9,195.6L13.9,195.6z M13.9,201.3L13.9,201.3
	c-0.3-0.4-0.6-0.6-1.1-0.2c-0.1-0.4-0.1-0.7,0-1.1c0.2,0,0.1,0.3,0.3,0.3c-0.2-0.4,0.2-0.6,0.4-0.9c0-0.4-0.2-1.7,0.5-1.7
	c-0.4,0.5,0.3,0.9,0.1,1.8c-0.3,0.1-0.4,0.5-0.8,0.6c0,0.2,0.1,0.2,0.2,0.3c0.3,0.1,0.1-0.4,0.5-0.3
	C14.3,200.5,14.1,200.9,13.9,201.3L13.9,201.3z M18.3,192.9L18.3,192.9c0.2-0.1-0.1-0.4,0-0.7c0.2,0,0.3-0.1,0.4-0.2
	c0-0.1-0.1-0.1-0.1-0.2c-0.2,0-0.2,0.3-0.3,0.4c-0.3-0.2-0.6-1.5,0-1.5c0,0.2,0,0.5-0.1,0.6c0.1,0.3,0.1-0.3,0.4-0.2
	c0.2,0.4,0.1,1.1,0.5,1.2c-0.3,0.4,0,1-0.5,1.1c1.1,0.5-0.1,1.7,0.4,2.9c-0.3-0.2-0.3,0-0.8-0.3c0-0.5-0.3-1.1,0.2-1.2
	c-0.2-0.9-0.3-1.4-0.5-2.1c0.1-0.1,0.2-0.1,0.3-0.1C18.2,192.7,18.3,192.7,18.3,192.9L18.3,192.9z M19,200.5L19,200.5
	c-0.3-0.1-0.2-0.6-0.7-0.3c-0.1-0.8-0.2-1.8,0-2.6c0.2,0.1,0.5,0.2,0.9,0.2c0.1,0.8-0.1,1.2-0.1,1.8C19.2,199.9,19.6,200.5,19,200.5
	L19,200.5z M21.6,187.3L21.6,187.3c-0.2,0.3-0.3,0-0.6-0.1c0-0.4,0-0.9-0.4-0.9c0.3,0.4,0.2,1-0.1,1.4c-0.8-1,0-2.9-0.3-3.9
	c0.5,0.2,0.4,0.9,0.5,1.4c0.2-0.1,0.3-0.3,0.3-0.7C21.8,185.1,21,186.9,21.6,187.3L21.6,187.3z M21.3,244.4L21.3,244.4
	c-0.2,0-0.2-0.1-0.2-0.3c-0.5,0.3-0.5,1.5,0.2,1.5c-0.6,0.4-0.3,1.1-0.1,1.7c-0.2-0.2-0.2,0.1-0.5,0c-0.2-2.2-0.6-4.9-0.6-7
	c0.6,0.4,0.5,1.3,0.3,1.9C20.8,243,21.5,243.5,21.3,244.4L21.3,244.4z M21,191L21,191c-0.4-0.1,0-1,0.2-1.1
	c-0.6-0.2,0.1-1.2-0.4-1.5c0.8,0.3,0.9,1.5,0.7,2.6C20.9,190.8,21.1,190.6,21,191L21,191z M23.5,217.9L23.5,217.9
	c-0.2,0-0.2-0.1-0.3-0.1c-0.1,0.4,0.2,0.5,0.2,0.8c-0.3-0.5-0.6-0.6-0.8-1.4c0.3,0.1,0.3,0,0.5-0.1c0-0.3-0.3-0.3-0.3-0.7
	c0.2,0,0.3,0,0.5,0C23.2,217.1,23.7,217.1,23.5,217.9L23.5,217.9z M25.5,244.7L25.5,244.7c-0.4-0.1-0.6-0.5-0.5-1.1
	c0.2,0,0.4,0,0.4-0.1C25.6,243.8,25.6,244.5,25.5,244.7L25.5,244.7z M30.2,297L30.2,297c-0.1-1.8-0.3-3.1-0.2-4.5
	C30.3,294,30.6,295.6,30.2,297L30.2,297z M32.1,327L32.1,327c-0.6-5.3-0.4-10.9-1-17.1c-0.1-0.6-0.3-1.4-0.3-2.1
	c0-0.3,0.1-0.5,0.1-0.8c0-0.6-0.2-1.2-0.3-1.7c-0.2-2.2-0.2-4.5-0.3-6.8c0.4,0.7,0.5,1.7,0.6,2.6c0.1,1.8,0.2,3.6,0.4,5.5
	c0.3,3.5,0.3,7.1,0.5,10.7c0.1,2.2,0.4,4.4,0.4,6.4c0,0.7-0.2,1.4-0.1,2.1C32.2,326.1,32.6,326.7,32.1,327L32.1,327z M58.2,180.4
	L58.2,180.4c-0.2-0.1-0.1-0.5-0.5-0.3c-0.4-0.6,0.4-1.3-0.2-1.6c0.1-0.4,0.2-0.8,0.5-1C58,178.6,58,179.2,58.2,180.4L58.2,180.4z
	 M59.9,222.8L59.9,222.8c0,0.5-0.4-0.2-0.6,0.1c-0.1,0.6,0.3,0.5,0.5,0.9c-0.2-0.2-0.1,0-0.4,0c0.3,0.1,0.2,0.5,0.2,0.9
	c-0.5,0-0.2-0.8-0.6-1c0.1-2.5,0.1-5.5-0.5-7.6c0.2-0.4,0-0.7-0.1-1c0.2-0.9,0.1-1.6-0.1-2.4c0.4-2.3-0.4-4.7,0-7.2
	c0-0.2-0.3-0.3-0.3-0.6c0.4-2.6-0.4-5.5,0-7.7c-0.4-1.9-0.3-4.2-0.3-6.3c0-0.3,0.3-0.3,0.3-0.5c0-0.2-0.3-0.2-0.4-0.3
	c0-3.5,0.1-6.2-0.3-9.3c0.2-0.1,0.5,0,0.6-0.2c0.5,1.4,0.5,3.9,0.4,5.3c0.1,1.2,0.7,3.2-0.2,4.3c0.2,0.2,0.3,0.2,0.6,0.1
	c-0.1,0.9,0.2,1.8-0.4,2.4c0.8,1.4,0.1,2.8,0.5,4.6c-0.3,0-0.4-0.3-0.4,0.2c0.2,0.3,0.1-0.2,0.4-0.1c-0.1,1,0.3,1.7-0.3,2.5
	c0.1,0.1,0,0.4,0.3,0.3c-0.1,0.2-0.4,0.2-0.4,0.4c0.3,1.9,0.2,2.9,0.3,4.7c0,0.2-0.1,0.2-0.3,0.2c0.8,1.4-0.2,4.4,1,5.3
	c0,0.5-0.2,1,0,1.4c-0.5,0.4-0.4,0.7-0.7,1.3c0,0.3,0.2,0.5,0.5,0.6c-0.1,1.8,0.4,3.7,0.1,5.8C60.1,220.8,59.3,222.2,59.9,222.8
	L59.9,222.8z M68.1,274.6L68.1,274.6c-0.2,0-0.3,0-0.3,0.2c-0.2-0.2-0.2-0.1-0.4-0.2c-0.1-0.6,0.2-0.9,0.1-1.2
	c0.1-0.1,0.3-0.1,0.3-0.2C67.9,273.7,68.3,273.8,68.1,274.6L68.1,274.6z M12.2,162.8L12.2,162.8c-0.2-0.1,0.2-0.5,0-0.6
	C12.4,162,12.8,162.9,12.2,162.8L12.2,162.8z M11.9,180.8L11.9,180.8c0.1,0.3-0.3,0.7-0.1,1.1c0.1-0.4,0.4-0.2,0.7-0.3
	c-0.1,0.3,0.1,0.4,0.3,0.5c0.1,0,0.1-0.1,0.2-0.1c-0.3-0.5-0.9-0.9-0.8-1.5c-0.2,0.2-0.4-0.1-0.4,0.2c-0.8-0.3-0.2-0.9-0.4-1.5
	c0.3,0.3,0.5,0.1,0.8,0.4c0.3-0.3,0-0.8,0-1.1c-0.2-0.1-0.3,0-0.3,0.3c-0.2,0,0-0.3-0.1-0.5c0.5,0.1,0.3-0.4,0.5-0.6
	c0.2,0,0.2,0.2,0.2,0.4c0.2-0.1,0.4-0.2,0.5-0.5c0.3,0.2,0.5,0.8,0.2,1.1c0,0.1,0.2,0.1,0.3,0.1c-0.2,0.7,0.4,2,0.2,3.3
	c-0.2,0-0.3,0-0.5,0c0,0.3,0.2,0.3,0.5,0.3c0,0.8-0.1,1-0.2,1.6c-0.4-0.4-0.2-0.2-0.6,0.1c0-0.3,0-0.5,0-0.8c-0.3,0.2,0,0.4-0.2,0.8
	c-0.2-0.2-0.3,0.3-0.5,0.2c-0.2,0,0-0.5-0.1-0.7c0.1,0.1,0.2,0,0.3,0c0-0.7-0.2-1.2-0.2-1.6c-0.2,0.2-0.2,0.6-0.1,0.9
	c-0.2,0.1-0.2-0.8-0.6-0.9c0-0.3,0.3-0.4,0.2-0.9C11.8,180.9,11.8,180.9,11.9,180.8L11.9,180.8z M13.5,189.2L13.5,189.2
	c0,1.3,0.1,2.3,0.2,3.7c-0.2,0-0.4,0-0.5-0.1c0.1-0.3,0-1.5-0.4-1.2c-0.1-0.8-0.4-1.5-0.2-1.9c-0.1-0.1-0.3,0-0.5-0.2
	c0-0.6-0.1-1.3,0.4-1.5c-0.1,0.4,0.1,0.8,0.2,1.3c0,0.2,0.5-0.4,0.4,0.2C13.3,189.5,13.5,189.5,13.5,189.2L13.5,189.2z M17.4,198.4
	L17.4,198.4c-0.6,0.1-0.4,0.6-0.7,0.9c0,0.2,0.3-0.1,0.4,0.1c-0.1,0.6,0.5,0.8,0.2,1.3c0,0.2,0.2-0.1,0.4,0c0.2,0.3,0.3,0.9-0.1,1.1
	c0.4,0.2,0.3,0.8,0.2,1.2c-0.3-0.1-0.5,0-0.6,0.4c-0.4-0.1-0.5,0-0.8-0.1c-0.1-0.7,0.4-0.8,0.9-0.7c0.4-0.3,0-0.7-0.6-0.6
	c-0.1,0.4,0.4,0.2,0.1,0.5c-1.1-1.6,0-4.1-0.7-5.9c0-0.4,0.3-0.5,0.6-0.7c-0.1,0.5,0.4,1.1-0.1,1.2c0,0.2,0.3,0.2,0.4,0.3
	c0.2-0.5-0.3-1.3,0.6-1.4c-0.1,1.3,0.3,2.3,0,3.4c0.2,0.1,0.4,0.9-0.1,0.9c0.1-0.5-0.1-0.7-0.2-1c0.2,0,0.3-0.1,0.3-0.3
	c0-0.1-0.3-0.1-0.3,0C17,198.9,17.6,198.7,17.4,198.4L17.4,198.4z M18,167.6L18,167.6c-0.8,0.2,0.3,1.4-0.1,2.2
	c0.1,0.2,0.2-0.1,0.3,0.1c-0.3,0.8,0.3,2.3-0.7,2.1c0.5,0.2-0.2,0.7,0.2,1.2c0.3,0-0.1-0.7,0.2-0.7c0.3,0.5,0.5,0.8,0.4,1.5
	c0.3,0.1,0.2-0.2,0.2-0.4c0.1,0.3,0.3,0.6,0.4,1c-0.2,0.2-0.2,0-0.4-0.1c-0.2,0.1-0.1,0.5-0.3,0.6c0,0.2,0.3,0,0.5,0.1
	c0.1,0.4,0.5,0.6,0.1,1c-0.2-0.1-0.2-0.4-0.3-0.6c-0.2,0.1,0,0.5,0.1,0.6c0,0.1-0.2,0.1-0.4,0.1c0,0.2,0.1,0.3,0.2,0.4
	c-0.3,0.1-0.3,0.4-0.6,0.4c0.4,0.5,0.3,1.5,0.6,2.2c0.2,0,0.3,0,0.5,0c-0.1-1-0.4-1.5-0.2-2.5c0.6,1.1,0.2,3.5,0.6,4.6
	c0.1,0.3-0.2,0.2-0.2,0.4c-0.5-0.5-0.1-1.8-0.6-2.4c-0.5,0.5,0.7,2.2-0.3,2.6c0,0.4,0.7,1,0.2,1.4c0.4,0.5,0.5,0.9,0.5,1.5
	c-0.2,0-0.2-0.1-0.2-0.3c-0.4,0.1,0,0.4,0,0.7c-0.3,0-0.2-0.5-0.5-0.7c-0.2,0.1-0.1,0.4-0.3,0.5c0.4,0.1,0.6,0.5,1,0.8
	c0,0.4-0.5,0.4-0.5,0.9c0.1,0.3,0.1-0.2,0.4-0.1c0,0.6,0.2,0.8-0.2,1.1c0.2,0.2,0.4,0.5,0.5,0.8c-0.1,0.2-0.3-0.1-0.8,0
	c0.2,0.3,0.5,0.4,0.7,0.7c-0.1,0.5-0.2,0.6-0.1,1.1c-0.3-0.2-0.3-0.7-0.5-1.1c-0.3,0.5,0.2,1,0.2,1.5c-0.2-0.2-0.1-0.4-0.6-0.5
	c0.2-0.8,0-1.4-0.1-2.1c-0.2,0-0.3,0-0.5,0c0.6,0.8,0,1.7,0.3,2.4c-0.6-0.2-0.4,0.6-0.8,0.8c0.1,0.3,0.4-0.1,0.4-0.2
	c0.4,0.8,0.1,2,0.5,3.3c-0.6-0.4-0.2-1.2-0.7-1.7c-0.1-0.1-0.3-0.2-0.6-0.2c0,0.3,0.1,0.5,0.5,0.4c-0.2,0.3-0.1,0.7,0.1,1
	c-0.1,0.3-0.4,0.3-0.7,0.4c0.1-0.3-0.2-0.6-0.3-1.1c0.3,0,0.4,0.2,0.6,0c-0.4-0.2-0.3-0.3-0.3-1c-0.3-0.1-0.2,0.2-0.2,0.4
	c-0.2-0.1-0.3-0.3-0.4-0.6c0.5-1.3-0.6-4.2,0.6-5c-0.2-0.2-0.3,0-0.6-0.1c-0.2-1.7-0.3-4.1,0-6.1c0.3-0.2,0.1,0.3,0.3,0.3
	c0.2-0.1,0.2-0.8-0.2-0.6c0.2-0.2,0.8,0,0.5-0.5c0.3,0.1,0.3-0.1,0.6-0.1c-0.3-0.1,0-0.7,0.3-0.5c0.1-0.3-0.1-0.2-0.1-0.5
	c0,0.3-0.5,0.2-0.5,0.6c-0.1,0-0.2-1.2-0.1-1.4c0-0.3-0.4,0.2-0.4-0.1c-0.1-0.2,0.2-0.1,0.2-0.3c0.3,0,0.3,0.4,0.6,0.4
	c0.2-0.1,0.1-0.5-0.2-0.5c0.1-0.8-0.2-1.2-0.5-1.6c-0.2,0,0,0.5-0.1,0.7c-0.1,0-0.2-0.1-0.2-0.2c-0.2,0-0.2,0.3-0.2,0.6
	c0.3-0.1,0.4,0.1,0.8-0.1c0.1,0.5-0.4,0.4-0.4,0.8c-0.2,0-0.2-0.2-0.2-0.4c-0.3,0.3-0.2,0.5-0.4,0c-0.1,0.1,0,0.4-0.3,0.5
	c-0.1-0.3-0.6-0.3-0.5,0.2c-0.2,0,0-0.4-0.3-0.4c0.2-0.2,0.5-0.5,1-0.5c-0.2-0.1-0.6-0.3-0.3-0.6c-0.2,0.1-0.4,0.1-0.3,0.5
	c-0.4,0.1-0.4-0.2-0.4-0.6c0.2-0.1,0.3,0.1,0.3-0.4c0.3,0.1,0.2,0.1,0.5,0c-0.3-0.3,0.4-1.4-0.2-1.4c0.3-0.5,0-1.1,0.4-1.5
	c0.2,0.1,0.3,0.6,0.1,0.8c0.2,0.1,0.3,0.3,0.5,0.4c-0.1,0.3-0.3,0.6-0.5,0.8c0.3,0.2,0.5,0.4,0.7,0.7c0.4-0.2,0-0.5-0.2-0.5
	c0.1-0.5,0.4-0.9,0.5-1.3c0.1,0.1,0.2,0.3,0.5,0.2c-0.2-0.3-0.3-0.6-0.8-0.7c0.2-0.1,0-0.5,0.2-0.6c-0.2-0.2-0.5-0.3-0.4-1
	c-0.3-0.1-0.3,0.2-0.6,0.1c0,0.2,0.2,0.2,0.1,0.5c-0.2,0.1-0.3,0.3-0.7,0.2c0.3-0.2,0.4-0.8,0-1.1c-0.1,0.1,0,0.6-0.1,0.9
	c-0.2,0.1-0.8,0.2-0.9-0.1c-0.2,0.1-0.1,0.2-0.1,0.5c0.5,0,0.9-0.2,1.1,0.1c0.1,0.3-0.3,0.1-0.3,0.3c0.5,0.4,0.2,1.5,0.2,2.2
	c-0.3-0.2-0.1-0.5-0.2-1.1c-0.3,0.1-0.3,0.5-0.4-0.1c-0.1,0.1-0.3,0.1-0.5,0.1c0,0.3,0.3,0.3,0.4,0.5c-0.4,0.2,0,0.6,0,1.3
	c-0.4-0.7-0.5-1.3-0.6-2.3c-0.4,0.1-0.1,0.8-0.8,0.6c0,0.2,0,0.5,0.1,0.6c0.4,0-0.1-0.3,0.2-0.4c0.3,0,0.3,0.4,0.3,0.7
	c-0.2,0-0.3,0-0.5,0c0.2,0.7,0.3,1.1,0,1.7c-0.3-0.1-0.4-0.4-0.5-0.7c-0.3,0-0.1,0.5-0.3,0.6c-0.1-0.8-0.8-1-0.7-2.1
	c0.1,0.1,0.2,0.1,0.3,0.1c0-0.1,0-0.3,0-0.4c-0.6-0.2-0.3-1.3-0.5-1.9c0.4,0.1,0.4-0.2,0.7-0.2c0.2,0.4,0.2,1,0.5,1.3
	c0.1-0.9-0.1-2.2,0.2-3c-0.1,0-0.3-0.1-0.4-0.4c-0.4,0-0.5,0.1-0.8,0c-0.2,0.1,0.2,0.4,0.1,0.7c0.1-0.1,0.2-0.2,0.2-0.4
	c0.4,0.3,0.2,0.9-0.3,1.1c-0.4-0.6-0.4-1.5-0.3-2.2c0.2-0.1,0.4-0.2,0.6-0.2c-0.2,0.5,0.2,0.4,0.2,0.9c0.2,0,0.2-0.1,0.3-0.1
	c-0.4-1,0.8-1.5,0.2-2.6c0-0.2,0.2,0.2,0.2,0.3c0.2,0,0-0.5,0.2-0.6c0.1,0.1,0.5,1.1-0.1,1c0,0.6,0.5,0.8,1,0.9c0,0.3,0,0.5,0.2,0.6
	c0.1-0.4,0.5-0.7,0.7-1.1c0.3,0.1,0.2,1.1,0.1,1.4c0.1,0.2,0.2,0.3,0.4,0.4c0.3,0.1,0.1-0.4,0.5-0.3c0,0.4,0.1,0.4,0,0.7
	c0.1,0,0.2,0,0.3,0c-0.1-0.6,0.1-2.3-0.8-2.6c0-0.2,0.1-0.3,0.1-0.4c-0.1-0.1-0.4-0.2-0.5-0.1c-0.1,0.3,0.3,0.2,0.3,0.6
	c-0.2-0.2-0.4,0.3-0.7-0.1c0,0.2,0,0.4,0,0.6c-0.2-0.3-0.3,0.1-0.6,0.1c-0.2-0.2,0-0.7-0.4-0.7c0.2-0.6-0.2-0.5-0.2-1.1
	c-0.4,0.1-0.6,0.4-1.1,0.2c-0.2,0.1-0.1,0.6-0.3,0.8c-0.6,0,0-1.1-0.5-1.2c0-0.3,0.3-0.4,0.3-0.8c-0.4,0-0.4-0.3-1.1-0.4
	c-0.2,0.1,0.2,0.4-0.4,0.3c0.1,0.8-0.6,1.4-0.1,2.1c-0.6,0.1-0.8-0.3-1.1,0.2c-0.8-1.3-1.2-3-1.2-5c0-0.2,0.1-0.3,0.3-0.3
	c-0.1-0.5-0.5-0.5-0.3-1.1c-0.2-0.2-0.2,0.1-0.5,0.1c0.3-0.5-0.3-0.4-0.2-1.1c0.2,0.2,0.5,0.2,0.7,0.5c0.2-0.2,0.3-0.6,0.5-0.9
	c0.4,0,0.7,0.1,0.8,0.4c0,0.4-0.3-0.1-0.3,0.3c0.4,0,0.6,0.2,1,0.4c-0.1,0.6-0.4,0.8-0.3,1.2c-0.3-0.2-0.4,0-0.4,0.4
	c0.4,0.1,0-0.4,0.4-0.3c0,0.3-0.2,0.4,0,0.6c0.1-0.1,0.2-0.1,0.4-0.1c0-0.3-0.2-0.3-0.1-0.7c0.4,0.2,0.4,0.1,0.8,0.3
	c0.3-0.2,0-0.5,0.2-0.8c0.3-0.1,0.2,0.1,0.5,0.1c0,0.5,0,0.8-0.1,1c0.3,0,0.6,0.2,0.5,0.8c0.4,0.2,0-0.4,0.3-0.4
	c0.4,0,0.2,0.6,0.6,0.8c0-0.3-0.1-0.6-0.1-1.1c0.3,0.3,0.5,0.6,0.5,1.1c0.3,0,0.1-0.5,0.5-0.5c0,0.4,0,0.7,0.3,0.8
	c0.2-0.2-0.1-0.6,0.1-0.8c0.3,0.2,0.1,0.6,0.6,0.8c0-0.6-0.4-1.2,0.3-1.3c0,0.2,0,0.4,0,0.7c0.4,0,0-0.8,0.5-0.7
	c-0.1-0.3-0.4-0.5-0.4-1c-0.5-0.1-0.9,0.1-1.3-0.1c0-0.2,0-0.4,0-0.6c-0.1-0.2-0.3,0.2-0.5,0.2c0,0.2,0.1,0.2,0.2,0.3
	c-0.1,0.2-0.5-0.2-0.6-0.4c0.2-0.3,1.1-0.4,0.8-1c-0.1,0.2-0.4,0.2-0.4,0.5c-0.3-0.3-0.5-0.2-0.6,0.2c-0.6-0.1-0.4-1.2-0.1-1.5
	c0-0.2-0.4,0-0.5-0.2c-0.4,1,0.1,2,0.4,3.1c-1.3,0.2-0.3-2.1-0.9-2.9c-0.2,0-0.3,0-0.5,0c-0.1-0.2-0.2-0.4-0.2-0.7
	c0.3,0,0.3,0.2,0.5,0.4c0.2-0.2,0.2-0.7,0.1-1c-0.4-0.1-0.2,0.4-0.5,0.3c0.1-0.5-0.2-0.9,0-1.6c0.4,0.1-0.1,0.7,0.3,0.8
	c0.2,0,0-0.5,0.2-0.6c0.3-0.1,0.4,0.1,0.6,0.2c0.3,0.1,0.2-0.2,0.4-0.3c-0.5-0.6-0.2-1.8-0.4-2.6c0.4,0.7,0.6,1.4,0.4,2.1
	c0.2,0.5,0.7,0.8,1.1,0.7c-0.1,0.2-0.1,0.4-0.5,0.3c0.1,0.2,0.2,0.3,0.4,0.4c-0.2,0.1-0.6-0.2-1,0.1c0.1,0.3,0.8-0.1,0.5,0.5
	c0.4-0.1,0.7-0.4,1-0.6c0.6,0.2,0.3,1.3,0.9,1.4c0,0.3-0.4-0.3-0.3,0.2c-0.2,0,0-0.4-0.3-0.4c-0.4,0.1,0,0.3-0.1,0.7
	c0.4,0.2,1,0.1,1.1,0.9c-0.3-0.5-0.1,0.6,0,0.9c0.4-0.1,0.4-0.4,0.7-0.6c0.2,0.2,0.4,0.4,0.4,0.8c-0.5-0.1,0.1,0.9,0.2,1.1
	c0.3,0,0.1-0.4,0.2-0.6c0.1-0.1,0.2,0.1,0.3,0.1c0.5-0.5-1.1-2.6-0.3-3.2c-0.4-0.4-0.5-1.3,0-1.7c0-0.2-0.5,0-0.7-0.1
	c-0.5-0.6,0-1.6-0.8-1.9c0-0.4,0.4-0.5,0.6-0.7c-0.6-0.3-0.1-1.1-0.7-1.5c0-0.2,0.2-0.3,0.2-0.5c0.3,0.2-0.2,1.2,0.4,1.1
	c0.1-0.4,0.2-0.5,0.5-0.5c-0.2-0.2-0.7-0.1-0.6-0.6c0.2,0,0.2,0.1,0.2,0.3c0.4-0.2,0.2-1.1-0.1-1.3c0.1-0.1,0.2-0.1,0.2-0.3
	c0.3,0,0.2,0.4,0.4,0.5c0.2-0.2,0.4-0.7,0.3-1c-0.3,0,0.1,0.5-0.3,0.4c-0.2-0.6-0.3-1.2-0.7-1.7c-0.2,0.1,0,0.6-0.4,0.6
	c0.1,0.2,0.2,0.3,0.4,0.5c-0.9,0.8-0.1-2.1-0.8-1.9c0-0.3,0.6-1.1,0.4-1.6c0.3,0.1,0.3-0.1,0.6,0.1c-0.1,0.2-0.1,0.5,0.1,0.7
	c0.3-0.1-0.1-0.4,0-0.7c1,1.4,0.7,4.2,1.1,6.1c0.2,0.2,0.4,0.4,0.6,0.7c-0.2,0.4-0.3,0.5,0,0.9c-0.4,0.1-0.3-0.2-0.6-0.3
	c0,0.2,0,0.3,0,0.5c0.4,0.3,0.9,0.5,1.1,1.1c-0.2,0-0.4,0-0.4,0.3c-0.3-0.1-0.3-0.4-0.4-0.6c-0.3,0.2,0.1,0.6,0.3,0.8
	c0,0.1-0.2,0.1-0.3,0.1c0,0.4,0,0.7,0.4,0.7c-0.1,0.7,0.3,1.3-0.3,1.4c0,0.1,0.4,0.3,0.4,0.1c0.2,0.2,0,0.7,0.2,0.9
	c-0.4,0.2-0.6-0.2-0.7,0.3c0.2,0.3,0.4-0.2,0.8,0.2c0.1,0,0.1-0.1,0.2-0.1c0.1-0.4-0.2-0.4-0.1-0.8c0.3,0.4,0.5,0.9,0.7,1.4
	c-0.2,0-0.2,0.3-0.5,0.2c0.7,0.7,0.1,1.1,0.4,2.3c-0.2-0.3-0.4-0.7-0.5-1.1c-0.2,0.3,0,0.8-0.4,0.7c0.2,0.1,0.5,0.1,0.6,0.4
	c-0.1,0.1-0.2,0.1-0.2,0.3c0,0.1,0.1,0.1,0.1,0.2c0.4,0.1,0.2-0.4,0.5-0.3c-0.3,0.5,0.3,0.7,0.3,1.2c-0.5,0.1-0.1,0.8-0.4,1.2
	c-0.2-0.1-0.2-0.6-0.5-0.4c-0.3,0.1,0.1,0.2,0,0.4c-0.4,0.1-0.2-0.4-0.4-0.5c-0.3,0.4,0,1,0,1.4c0.2-0.2,0.1-0.6,0.5-0.6
	C17.8,167.4,17.8,167.5,18,167.6L18,167.6z M19.6,152.8L19.6,152.8c0.3,0.3,0.2,1,0.5,1.4c-0.4,0-0.2-0.6-0.5-0.7
	c-0.1,0.2-0.4,0.6-0.7,0.2c0.3-0.2,0.6-0.7,0.2-1.1C19.2,152.7,19.5,153.1,19.6,152.8L19.6,152.8z M20.1,236.4L20.1,236.4
	c0.3,0.1-0.3,0.2-0.1,0.5c-0.2,0-0.2-0.2-0.2-0.5C19.9,236.5,20.1,236.6,20.1,236.4L20.1,236.4z M16.6,204L16.6,204
	c0.2-0.1,0.5,0.4,0.8,0.5c-0.2,0.7,0.1,1.1,0.3,1.4c0.5-0.4-0.3-0.5-0.2-1.1c0.2,0,0.2,0.1,0.3,0.1c0-0.3-0.2-0.6,0-0.9
	c0.1,0.2,0.2,0.5,0.3,0.8c-0.1,0.1-0.2,0.3-0.4,0.3c0.2,0.2,0.5,0.9,0.3,1.2c-0.2,0-0.3-0.1-0.3-0.3c-0.2,0-0.2,0.3-0.3,0.4
	c0.1,0.3,0.4,0.3,0.7,0.2c0.3,0.4-0.5,1.2,0.4,1.3c0.1,0.4-0.4,0.3-0.3,0.8c-0.3,0.1-0.1-0.4-0.5-0.3c-0.4,0.5,0.8,0.5,0.4,1.1
	c-0.2,0-0.1-0.4-0.4-0.3c0.1,0.5,0.3,0.9,0.1,1.3c0.3,0.2,0.7,0.7,0.4,1.1c-0.1-0.1-0.1-0.2-0.3-0.2c0.1,0.6,0.7,1.6,0.2,2
	c0.6,0.3,0.2,0.6-0.1,1c0,0.2,0.3,0,0.5,0.1c0.1,0.4-0.1,0.5-0.3,0.6c0.1,0,0.3,0.1,0.5,0.3c-0.5,3.2,0.6,7.8,0.5,11.2
	c-0.5-0.2-0.1-0.4-0.3-0.9c-0.2,1.3,0.1,2.5,0.2,3.6c0.2-0.1,0-0.7,0.1-1c0.3,0.1,0.2,0.5,0.5,0.6c0.1,0.3-0.1,0.4-0.2,0.6
	c0.3,0.1,0.4,0.4,0.5,0.7c-0.1,0.2-0.3,0.3-0.6,0.4c0.1-0.3-0.1-0.3-0.1-0.6c-0.2,4.2,0.6,9.8,1,14.1c0.1,1-0.2,2,0.3,2.7
	c-0.5,0.7,0.4,2-0.4,2.5c0.1-0.7-0.6-1.6,0-2.2c-0.4-1.7-0.8-4-0.7-6.4c0-0.2-0.1-0.3-0.3-0.3c0.2-0.5,0.3-1.4-0.2-1.3
	c0.1-0.3,0.1-0.8,0.3-1c-0.5-0.1-0.1-0.9-0.2-1.5c-0.1,0.1-0.1,0.2-0.2,0.3c-0.1-0.1-0.3-1.1,0.1-1.1c-0.1-0.2-0.3-0.3-0.4-0.6
	c0.2-1.4-0.4-3.4-0.1-4.7c-0.6-1.6-0.4-3.4-0.5-5.1c-0.1-0.7,0-1.4,0-2.2c0-0.7-0.4-1.3-0.5-2c-0.1-0.9,0.5-1.6,0.3-2.5
	c-0.1-0.3-0.1-0.1-0.4-0.1c0-0.8,0-1.5-0.2-2c0.1,0,0.3,0,0.4,0c0-0.9-0.1-1.5,0-2.3c-0.5,0.2-0.3,0.2-0.6-0.2
	c0.1-0.4,0.3,0,0.5-0.2c-0.3-0.5,0.4-2.2-0.5-2.2c0.1-1-0.4-1.9,0.2-2.4C16.4,208.2,17,205.7,16.6,204L16.6,204z M20.5,170.8
	L20.5,170.8c0-0.2-0.2-0.3,0-0.5c0.3,0.2-0.1,0.5,0,0.9c-0.4-0.1-0.5,0.2-0.5,0.6c-0.3-0.1-0.4-0.4-0.5-0.7c0.4-0.4,0.1-0.5,0.2-1
	c0.3,0.2,0.3,0.7,0.2,1C20.3,171.2,20.1,170.7,20.5,170.8L20.5,170.8z M21.1,164.7L21.1,164.7c0.1,0.3-0.2,0.3-0.1,0.6
	c-0.4-0.1-0.5-0.6-0.6-1.1c-0.6,0.4,0.1,1.2-0.3,1.6c0,0.3,0.4,0.3,0.5,0.6c0,0.1-0.5-0.2-0.7-0.2c0-0.3,0.1-0.7-0.2-0.8
	c-0.1,0-0.1,0.2-0.1,0.4c-0.5-0.6-0.1-2-0.5-2.6c-0.1-0.3,0.3-0.2,0.2-0.5c0.3,0.5,0.3,1.1,0.5,1.4c0.2-0.1,0-0.6,0.5-0.5
	c-0.3-0.2,0.2-0.6,0-0.7c0.1-0.1,0.4,0.4,0.5,0.7c-0.1,0.2-0.3,0.3-0.3,0.6C20.8,164.3,20.8,164.7,21.1,164.7L21.1,164.7z
	 M21.1,247.9L21.1,247.9c-0.1,0.2,0.2,1.3,0,1.8c-0.4-0.3-0.3-1.1-0.3-1.7C21,248,21.1,248,21.1,247.9L21.1,247.9z M20.8,183
	L20.8,183c0.5,0.2,0.7,0.6,0.4,1.1c-0.3,0.1-0.3-0.6-0.5-0.3C20.5,183.7,20.9,183.4,20.8,183L20.8,183z M21.7,203.8L21.7,203.8
	c0.5,0.6,0.1,1.6,0.3,2.6c-1-0.4-0.2-2.8-0.5-3.4C21.7,202.8,22.3,203.7,21.7,203.8L21.7,203.8z M22,181.5L22,181.5
	c-0.2-0.1-0.5-0.4-0.4-0.1c-0.4,0.1-0.9-0.7-1.1-1.2c-0.2,0-0.4,0-0.7,0c-0.2-0.9-0.4-2,0.1-2.6c-0.1-0.3-0.3-1.1,0.2-1.4
	c0.1,0.8,0,1.3,0.3,1.9c0.2-0.1,0-0.5,0.1-0.8c0.3,0.6,0.6-0.3,0.2-0.5c-0.1,0-0.1,0.2-0.1,0.4c-0.2,0,0-0.3-0.1-0.5
	c0.5,0,0.5,0.5,0.7,0.9c-0.1,0.2-0.1,0.4-0.4,0.5c0.1,0.4,0.6,0.4,0.5,1.1c-0.2,0-0.3,0.1-0.4,0.1c0,0.5,0.7,0.8,0.5,1.2
	c-0.1,0-0.1-0.2-0.2-0.2C21,180.9,22,180.5,22,181.5L22,181.5z M24.4,317.4L24.4,317.4c0.2-0.3,0,0.4,0,0.5
	c-0.3-0.1-0.2-0.7-0.2-1.1c0.3,0.1,0,0.5,0.1,1C24.4,317.6,24.4,317.5,24.4,317.4L24.4,317.4z M24.6,284.2L24.6,284.2
	c-0.3,0.1-0.2-0.1-0.5-0.1c0.5-0.8-0.3-1.9,0.2-2.8c0.2,0.3,0.2,0.6-0.1,0.7C24.7,282.4,24.3,283.4,24.6,284.2L24.6,284.2z
	 M25.6,283.8L25.6,283.8c-0.2-0.1-0.2-1.8,0-1.2c0.1,0.3,0.3,0.6,0.2,1.1C25.7,283.5,25.7,283.7,25.6,283.8L25.6,283.8z M26.8,293.9
	L26.8,293.9c-0.3-0.7-0.4-2.4-0.5-3.4C27,291.2,26.8,293,26.8,293.9L26.8,293.9z M29.7,311.5L29.7,311.5c-0.5-0.2,0.4,1-0.2,1.2
	c0.5,0.4,0,1.3,0.2,2.1c-0.7-1-0.1-3.1-0.6-4.3c0.3-0.1,0.2,0.5,0.3,0C29.7,310.8,29.3,311.4,29.7,311.5L29.7,311.5z M43.5,338.6
	L43.5,338.6c-0.6-0.6,0-1.5-0.1-2.6C44,336.8,43.2,337.9,43.5,338.6L43.5,338.6z M49.4,332.8L49.4,332.8c0.2-0.2,0,0.5-0.1,0.7
	c-0.2,0,0-0.4-0.1-0.6c0.1,0,0.1,0,0.1,0.1C49.4,332.9,49.3,332.8,49.4,332.8L49.4,332.8z M54.3,311.9L54.3,311.9
	C54.5,311.9,54.4,312,54.3,311.9c0.2,0.6,0.1,0.9,0,1.2C54.1,313,54.3,312.3,54.3,311.9L54.3,311.9z M65.3,292.6L65.3,292.6
	C65.6,293.4,65.1,293.4,65.3,292.6L65.3,292.6z M65.5,300.1L65.5,300.1c0.2,0.3,0.2,1.1,0.2,1.5c0,0.6-0.1,1.8-0.3,0.8
	C65.8,301.7,65.4,301,65.5,300.1L65.5,300.1z M66,195.7L66,195.7c-0.3,0.2-0.1,0.9-0.2,1.5c-0.3-0.1-0.2-0.6-0.4-0.9
	c-0.3,0.1-0.1,0.7-0.2,1.1c0.2,0,0.4,0,0.4-0.1c0.6,0.7,0.2,2.7,0.2,4.1c0,0.4,0.2,0.7,0,1c-0.2-0.2,0-0.9-0.3-1
	c-0.2,0.1,0,0.7-0.4,0.7c0.2,0.3,0.3,0.1,0.2,0.6c-0.3,0.1-0.6-0.6-0.7-0.1c-0.4-0.1,0-0.8,0.3-0.8c0.3-0.7-0.4-0.8-0.4-1.5
	c0.2,0.2,0.2,0.3,0.5,0.1c0-0.3-0.3-0.3-0.3-0.5c-0.1,0.1-0.1,0.2-0.3,0.2c0-0.4,0.4-0.3,0.3-0.8c-0.5,0.2-0.1-1.7-0.2-1.9
	c0.1,0.1,0.2,0,0.3,0c-0.1-1,0.2-1.5,0.7-2.2c-0.4,0-0.3,0.4-0.7,0.4c0.1-0.2,0.1-0.4,0.2-0.8c0.3,0.3,0.6-0.4,0.4-0.6
	c-0.2,0-0.2,0.3-0.3,0.4c-0.3-0.2-0.1-0.8-0.4-0.9c0.3-0.5,0.3-0.7,0.4-1.4c0.1,0,0.3,0,0.4,0c0,0.2,0,0.3,0,0.5
	c-0.2,0-0.5-0.1-0.4,0.2c0.1,0.3,0.2-0.2,0.5-0.1C65.7,194,65.6,194.8,66,195.7L66,195.7z M65.8,224.1L65.8,224.1
	c0.6,0.5,0.7,2.5,0.5,3.4c-0.1-0.3,0-0.9-0.1-1.2c0-0.1-0.1-0.1-0.1,0C66.1,225.4,65.4,224.5,65.8,224.1L65.8,224.1z M9.2,170.3
	L9.2,170.3c-0.3-0.1-0.2-0.7-0.2-1.1C9.3,169.4,9.1,169.8,9.2,170.3L9.2,170.3z M10,172.1L10,172.1c0.2-0.7-0.1-1.1,0-1.5
	C10.4,170.7,10.5,171.9,10,172.1L10,172.1z M10.7,166.9L10.7,166.9c-0.2-0.1-0.2-0.4-0.2-0.8C10.9,166.2,10.7,166.4,10.7,166.9
	L10.7,166.9z M10.5,157.4L10.5,157.4c-0.1-0.3,0-0.4,0-0.8C10.8,156.6,11,157.5,10.5,157.4L10.5,157.4z M11.1,170.2L11.1,170.2
	c-0.1,0.2-0.5,0.1-0.7,0.2c0-0.2-0.2-0.2-0.2-0.5C10.6,169.7,10.9,170,11.1,170.2L11.1,170.2z M11.4,169.4L11.4,169.4
	c-0.2-0.1-0.2-0.4-0.2-0.8C11.6,168.6,11.3,169.2,11.4,169.4L11.4,169.4z M11.1,157.6L11.1,157.6c-0.1-0.3,0.1-0.5-0.1-0.9
	C11.4,156.9,11.6,157.5,11.1,157.6L11.1,157.6z M11.3,156.5L11.3,156.5c-0.6-0.2-0.2-1.3-0.3-1.6C11.4,154.7,11.4,156.4,11.3,156.5
	L11.3,156.5z M12.2,187.3L12.2,187.3c-0.2,0,0-0.5-0.1-0.7C12.4,186.8,12.3,187.1,12.2,187.3L12.2,187.3z M12.5,192.9L12.5,192.9
	c0,0.2,0,0.5-0.3,0.5C12.3,193.1,12.3,192.9,12.5,192.9L12.5,192.9z M12.7,185L12.7,185c-0.1,0.3,0.2,0.9-0.2,0.9
	C12.5,185.6,12.5,185.3,12.7,185c-0.3,0.1-0.4,0.2-0.4,0.4c-0.3-0.1,0.1-0.3,0-0.6C12.5,184.9,12.6,185,12.7,185L12.7,185z
	 M12.9,195.7L12.9,195.7c-0.2,0,0-0.4-0.1-0.6C13.1,195.1,13,195.5,12.9,195.7L12.9,195.7z M13,202.7L13,202.7
	c-0.2,0,0.1-0.4-0.3-0.3c0-0.1,0.1-0.1,0.1-0.2c0.1,0,0.1,0,0.2,0C13,202.5,13.2,202.6,13,202.7L13,202.7z M13.2,199.2L13.2,199.2
	c-0.2,0.2-0.3,0.6-0.7,0.7c0.2-0.5-0.2-1.5,0.2-2c0.3,0,0.3,0.2,0.4,0.5c-0.2,0-0.3,0.1-0.4,0.1c0.1,0.1,0.2,0.5,0,0.6
	C12.7,199.2,13,199.2,13.2,199.2L13.2,199.2z M13.4,189.1L13.4,189.1c-0.4-0.1-0.4-1.1-0.3-1.4C13.5,188,13.5,188.5,13.4,189.1
	L13.4,189.1z M13.7,186.1L13.7,186.1c0,0.3-0.1,0.3-0.3,0.2c0.2,0.6-0.1,0.5-0.2,1.1c-0.4-0.7-0.1-1.4-0.2-2.4
	C13.3,185.3,13.2,185.9,13.7,186.1L13.7,186.1z M13.9,202.9L13.9,202.9c-0.1-0.1-0.2-0.1-0.3-0.1c0.1-0.4-0.2-0.4-0.2-0.7
	c0.2-0.2,0.3,0,0.5,0.1C13.8,202.6,14.1,202.7,13.9,202.9L13.9,202.9z M13.7,197.3L13.7,197.3c-0.4-0.3-1-0.5-0.9-1.3
	c0.2,0.2,0.2,0.5,0.5,0.6c0.1-0.1,0.2-0.3,0.2-0.6C13.5,196.5,14.5,197,13.7,197.3L13.7,197.3z M14.8,160.3L14.8,160.3
	c-0.3-0.2-0.2-0.7-0.5-0.9C14.6,159.2,14.9,159.8,14.8,160.3L14.8,160.3z M15.1,153L15.1,153c-0.3-0.2-0.5,0-0.3,0.3
	c-0.4,0.1-0.1-0.5-0.2-0.7C15,152.6,15.1,152.7,15.1,153L15.1,153z M15.4,178.8L15.4,178.8c-0.4,0-0.1-0.6-0.3-0.8
	C15.4,178.1,15.4,178.5,15.4,178.8L15.4,178.8z M15.6,160.4L15.6,160.4c-0.1,0.3-0.3,0-0.7,0.1c-0.1-0.4,0.4-0.2,0.3-0.7
	C15.5,159.9,15.3,160.4,15.6,160.4L15.6,160.4z M16,179.6L16,179.6c-0.4-0.2,0-0.6-0.2-1C16.2,178.6,15.9,179.3,16,179.6L16,179.6z
	 M16.4,178.3L16.4,178.3c-0.1,0.3,0.2,1-0.2,1C16.3,179,16,178.3,16.4,178.3L16.4,178.3z M17.3,194.6L17.3,194.6
	c-0.2,0.3-0.2,0.6-0.2,1.1c-0.3,0-0.1-0.6-0.5-0.6c0.1-0.3,0.1-0.3,0-0.6c0.2,0,0.2-0.1,0.2-0.3C17.1,194.3,16.9,194.7,17.3,194.6
	L17.3,194.6z M17.6,158.9L17.6,158.9c0.1-0.4-0.2-0.6,0-0.8C17.8,158.3,18.1,158.9,17.6,158.9L17.6,158.9z M18.6,171.4L18.6,171.4
	c0.2,0,0,0.5,0.1,0.7C18.3,172,18.5,171.6,18.6,171.4L18.6,171.4z M18.7,171.2L18.7,171.2c-0.5,0.1-0.2-0.7-0.3-0.8
	C18.6,170.1,18.6,170.9,18.7,171.2L18.7,171.2z M18.4,197.4L18.4,197.4c-0.2-0.1,0-0.5-0.1-0.8c0.5-0.1,0.3,0.4,0.7,0.4
	c0-0.3-0.3-0.4-0.1-0.6c0.5,0.4,0.4,1.1-0.2,1.1C18.8,197.5,18.5,196.9,18.4,197.4L18.4,197.4z M19.1,228.1L19.1,228.1
	c-0.3-0.1-0.1-0.4-0.1-0.6C19.2,227.6,19.3,227.9,19.1,228.1L19.1,228.1z M19.3,186.9L19.3,186.9c-0.4-0.4-0.1-0.9-0.4-1.4
	C19.3,185.8,19.4,186.5,19.3,186.9L19.3,186.9z M19.5,205.5L19.5,205.5c-0.1-0.1-0.4-0.1-0.4,0.1c0,0.3,0.3-0.2,0.3,0.1
	c-0.3,0.5-0.2,0.7-0.2,1.1c-0.5-0.3-0.1-1.2-0.7-1.2c0.3-1.7-0.1-2.3,0.3-4c-0.3-0.1-0.5-0.3-0.5-0.8c0.6-0.1,0.3,0.6,1,0.4
	C18.9,202.2,19.3,204.1,19.5,205.5L19.5,205.5z M19.7,212.7L19.7,212.7c-0.4,0-0.3-0.5-0.1-0.6c-0.1-0.3-0.2,0.1-0.4,0
	c0.2-0.4-0.1-1.1-0.5-1.3c0.1-0.2,0.3-0.3,0.5-0.3C19.6,211.1,19.8,211.5,19.7,212.7L19.7,212.7z M19.6,166.4L19.6,166.4
	c0.2,0,0,0.4,0.1,0.6C19.3,167,19.5,166.6,19.6,166.4L19.6,166.4z M19.6,234.4L19.6,234.4c0-0.2,0-0.4,0.1-0.5
	C19.9,234,19.9,234.4,19.6,234.4L19.6,234.4z M19.9,169.9L19.9,169.9c-0.6,0.1-0.5-0.6-0.6-1.1c0.1,0,0.1,0.2,0.2,0.2
	c0.2-0.2-0.1-0.4,0.1-0.8c0-0.1-0.2-0.1-0.4-0.1c0-0.2,0.3-0.2,0.2-0.5c0.5,0.2,0.3,1,0.6,1.4C19.7,169,19.8,169.5,19.9,169.9
	L19.9,169.9z M19.9,236.3L19.9,236.3c-0.2-0.3-0.2-0.9-0.3-1.3C19.8,235.3,20.3,235.9,19.9,236.3L19.9,236.3z M20.1,173.1
	L20.1,173.1c-0.4-0.1-0.3-0.7-0.3-1.2C20,172.1,20.3,172.7,20.1,173.1L20.1,173.1z M20.2,158.8L20.2,158.8c-0.4-0.2-0.1,0.2-0.5,0.2
	c0.1-0.6-0.1-1.3,0.1-1.8C20.2,157.5,20.1,158,20.2,158.8L20.2,158.8z M20.4,237.7L20.4,237.7c-0.1,0.2-0.3,0.5,0,0.7
	c0,0.2-0.2,0.4-0.1,0.7c-0.5-0.2-0.5-1.2-0.4-1.9C20.3,237,20,237.7,20.4,237.7L20.4,237.7z M20.3,225.8L20.3,225.8
	c-0.1,0.4-0.4,0.5-0.5,0.8c0-0.5-0.4-1.7,0.3-1.8c-0.3-0.4-0.8-1.4-0.2-1.6c-0.1-0.1-0.2-0.3-0.5-0.3c0-1,0.6-1.8-0.2-2.5
	c-0.1-1.3,0.9-2.8,0-3.8c0-0.3,0.3-0.3,0.2-0.7c0.4,0.7,0.5,2.1,0.5,3c-0.2,0-0.1-0.3-0.3-0.3c-0.1,0.2,0,0.3-0.1,0.7
	c0.1,0.3,0.5,0.2,0.6,0.5c-0.1,0.2-0.5,0.2-0.4,0.8c0.1,0.3,0.1,0.1,0.4,0.1c-0.3,1.4,0.3,2,0.1,3.4c-0.2,0-0.2-0.1-0.3-0.1
	c0,0.2,0.1,0.3,0.1,0.4c0.2,0,0.2-0.1,0.2-0.2c0.2,0.2,0,0.7,0.2,1C19.8,224.7,19.9,225.6,20.3,225.8L20.3,225.8z M20.1,176
	L20.1,176c-0.3-0.2-0.1-1-0.2-1.5c0.1-0.1,0.3-0.1,0.3-0.2C20.3,174.6,20.3,175.5,20.1,176L20.1,176z M20.5,226.5L20.5,226.5
	c0,0.2,0,0.5-0.1,0.6C20.2,227,20.2,226.3,20.5,226.5L20.5,226.5z M20.5,170.1L20.5,170.1c-0.3,0.1-0.5-0.5-0.1-0.5
	C20.5,169.7,20.5,169.9,20.5,170.1L20.5,170.1z M20.6,232L20.6,232c0,0.3-0.1,0.5-0.4,0.5c0.2-0.5-0.3-0.7-0.1-1
	C20.4,231.7,20.3,232,20.6,232L20.6,232z M20.6,188.5L20.6,188.5c-0.2,0-0.3-0.1-0.4-0.1c0-0.2,0-0.4,0.3-0.4
	C20.4,188.3,20.6,188.2,20.6,188.5L20.6,188.5z M20.7,228L20.7,228c-0.3,0-0.3-0.4-0.6-0.5c0-0.1,0.2-0.1,0.2,0
	c0.1,0,0.1-0.1,0.1-0.2C20.5,227.5,20.7,227.7,20.7,228L20.7,228z M20.7,202.1L20.7,202.1c-0.3,0-0.3-0.2-0.3-0.5
	C20.7,201.5,20.7,201.8,20.7,202.1L20.7,202.1z M20.7,199.2L20.7,199.2c-0.6,0.4,0.1,1.3-0.2,1.9c-0.7-0.6,0-2-0.4-2.8
	c0-0.2,0.1-0.4,0.4-0.4c0,0.6,0.1,0.8-0.2,1.1C20.3,199.2,20.5,199.2,20.7,199.2L20.7,199.2z M20.7,194.7L20.7,194.7
	c0,0.1-0.4-1.1-0.1-1C20.7,193.9,20.6,194.4,20.7,194.7L20.7,194.7z M20.7,193.5L20.7,193.5c-0.1-0.5-0.5-0.1-0.6-0.6
	c0.2,0,0.3,0.1,0.4,0.1c-0.1-0.3,0.2-0.6,0-0.6C20.8,192.3,20.5,193,20.7,193.5L20.7,193.5z M20.5,190.8L20.5,190.8
	c0-0.6-0.1-1.1-0.1-1.7C20.5,189.4,20.8,190.6,20.5,190.8L20.5,190.8z M20.4,183.7L20.4,183.7c-0.5-0.9-0.5-2.6-0.1-3.3
	c0.4,0.5,0,1.7,0.5,2.4C20.3,182.6,20.7,183.2,20.4,183.7L20.4,183.7z M20.7,158.5L20.7,158.5c-0.5-0.1-0.5-1-0.3-1.3
	c-0.2-0.2-0.4-0.3-0.9-0.3c-0.2,0.1-0.4,0.4-0.5,0.7c0-1-0.5-2.5-0.1-3.4c0.3,0.3,0.9,0.8,1.2,1.3c-0.3,0.3-0.1,1.1,0.4,1.1
	C20.5,157.2,20.8,157.9,20.7,158.5L20.7,158.5z M20.8,252.8L20.8,252.8c-0.9-0.2-0.6-1.6-0.5-2.1C21.1,251.1,20.6,252.3,20.8,252.8
	L20.8,252.8z M20.9,169.8L20.9,169.8c-0.3,0-0.1-0.6-0.6-0.4c-0.1-0.3,0.2-0.4,0.3-0.6C20.8,169,20.8,169.5,20.9,169.8L20.9,169.8z
	 M20.2,162L20.2,162c0.2,0,0-0.4,0.2-0.5c0.2,0.1,0.3,0.3,0.5,0.4c-0.1,0.2-0.2-0.1-0.5,0.1c0,0.2,0.3,0.1,0.2,0.4
	c-0.4-0.4-0.8,0.2-1-0.3c-0.3,0.1-0.1,0.3-0.1,0.6c-0.4,0-0.5-1.2,0-1.2c-0.1,0.4,0.2,0.3,0.2,0.6c0.2,0,0.2-0.1,0.3-0.1
	c-0.3-0.6-0.1-1.1,0-1.7c0.3,0.1,0.1,0.5,0.5,0.5C20.6,161.3,20,161.5,20.2,162L20.2,162z M20.9,159L20.9,159c0,0.2-0.3,0.1-0.2,0.4
	c-0.3-0.2,0-0.4-0.2-0.7C20.8,158.6,20.7,159,20.9,159L20.9,159z M21.1,175.7L21.1,175.7c0,0.2-0.2,0.2,0,0.3
	c-0.2,0.2-0.4-0.1-0.5,0.3c-0.3-0.2-0.1-0.4-0.2-1C20.5,175.2,20.5,176.1,21.1,175.7L21.1,175.7z M21.1,172.4L21.1,172.4
	c-0.2,0.5-0.6,0.4-0.4,1.1c-0.8-0.4-0.1-1.2-0.4-1.7c-0.1-0.3,0.3-0.1,0.2-0.5c0.2,0.1,0.1,0.5,0.4,0.5c0.1,0.3-0.2,0.2-0.2,0.4
	C20.8,172.3,21,172.4,21.1,172.4L21.1,172.4z M21.1,256.4L21.1,256.4c0.2,0.1,0,0.6,0.1,0.9c-0.2,0.4,0-0.5-0.2-0.4
	c-0.3,0.2,0,0.5-0.2,0.9c-0.5-1.1-0.3-3.2-0.6-4.5c0.2-0.4,0.3,0.2,0.6,0.1c-0.6,0.8,0.5,1.5,0.3,2.3c-0.2,0-0.2-0.1-0.2-0.2
	c-0.1,0-0.1,0.1-0.2,0.1c-0.1,0.5,0.2,0.3,0.3,0.4c0,0.2-0.2,0.3-0.3,0.5C20.8,256.5,21.2,256.8,21.1,256.4L21.1,256.4z M21.1,252.2
	L21.1,252.2c-0.2-0.9,0.1-1.5,0.1-2.1C21.4,250.7,21.9,251.8,21.1,252.2L21.1,252.2z M21.6,195L21.6,195c-0.2,0-0.5,0-0.4,0.3
	c-0.4-0.7,0.2-1.3-0.4-2.2c0.4-0.2,0.2-0.6,0.4-1C21.5,192.9,21.6,193.6,21.6,195L21.6,195z M21.9,266.6L21.9,266.6
	c-0.4,0.1-0.3-0.4-0.3-0.7C21.7,266.2,21.8,266.4,21.9,266.6L21.9,266.6z M21.8,263.9L21.8,263.9c-0.1-0.2-0.4-0.3-0.4,0.1
	c-0.1-0.5-0.4-1-0.3-1.9c0.2,0.4,0.2,0.8,0.4,1.4c0.4,0-0.1-0.3,0.3-0.3C21.8,263.6,21.9,263.6,21.8,263.9L21.8,263.9z M21.9,254.9
	L21.9,254.9c-0.2-0.1-0.1,0.2-0.3,0.2c0.1,0.1,0.2,0.4,0.3,0.5c-0.4,0.3-0.6-0.3-0.6-0.7C21.8,254.7,21.8,253.6,21.9,254.9
	L21.9,254.9z M21.9,252.8L21.9,252.8c0.1,0.3-0.1,0.3-0.1,0.6C21.7,253.2,21.4,252.6,21.9,252.8L21.9,252.8z M21.8,198.5L21.8,198.5
	c-1-0.1-0.6-1.2-0.9-1.8c0.3,0,0.2,0.2,0.4,0c-0.1-0.5-0.4-1.2,0.3-1.4c0.2,0.2-0.4,0.8,0.2,0.6C21.2,196.7,22,197.5,21.8,198.5
	L21.8,198.5z M21.9,202.6L21.9,202.6c-0.3-0.1-0.2,0.1-0.5,0.1c0.2-0.2,0-0.3,0-0.6c0.1,0,0.2,0,0.3,0c-0.1-0.5-0.3-0.3-0.4-0.8
	c0-0.3,0.5-0.1,0.4-0.5C22,201.3,22,202.1,21.9,202.6L21.9,202.6z M22,208.3L22,208.3c-0.2-0.5-0.5-1.5,0-1.6
	C22,207.4,22.2,207.7,22,208.3L22,208.3z M22.2,182.5L22.2,182.5c-0.2-0.2-0.3-0.5-0.4-0.9C22.4,181.7,22,182.2,22.2,182.5
	L22.2,182.5z M22.2,261L22.2,261c-0.3,0.1-0.3-0.7,0-0.6C22.2,260.6,22.5,260.9,22.2,261L22.2,261z M22.3,209.1L22.3,209.1
	c0,0.3-0.2,0.4-0.3,0.7c-0.2-0.4-0.1-0.9-0.1-1.2C22.3,208.7,21.8,209.1,22.3,209.1L22.3,209.1z M22.4,297.7L22.4,297.7
	c-0.1,0-0.3,0-0.4,0c0.2-0.2,0-0.4,0-0.7C22.2,297.2,22.4,297.4,22.4,297.7L22.4,297.7z M22.4,214.4L22.4,214.4
	c-0.2-0.2-0.4-0.9-0.2-1.2C22.3,213.5,22.6,214,22.4,214.4L22.4,214.4z M22.5,271.3L22.5,271.3c0.1,0,0.2,0.8-0.1,0.7
	C22.4,271.7,22.4,271.5,22.5,271.3L22.5,271.3z M22.6,271L22.6,271c-0.4-0.3-0.8-1-0.6-1.5c0.2,0,0.1,0.3,0.4,0.2
	C22.3,270.4,22.4,270.5,22.6,271L22.6,271z M22.6,262.6L22.6,262.6c-0.2-0.2-0.6-0.6-0.4-0.9C22.5,261.8,22.4,262.4,22.6,262.6
	L22.6,262.6z M22.7,264.9L22.7,264.9c-0.4-0.4-0.3-1-0.3-1.8C22.8,263.2,22.8,264.3,22.7,264.9L22.7,264.9z M22.9,312.1L22.9,312.1
	c-0.1-0.1-0.3-0.5-0.2-0.6C23,311.4,22.8,311.9,22.9,312.1L22.9,312.1z M22.9,303.5L22.9,303.5c-0.3-0.3-0.1-1-0.1-1.3
	C23,302.5,22.9,303,22.9,303.5L22.9,303.5z M23.2,304.3L23.2,304.3c0,0.1-0.2,0.1-0.3,0.1c0-0.3,0-0.6,0.1-0.9
	C23.2,303.7,22.8,304.2,23.2,304.3L23.2,304.3z M23.3,306.7L23.3,306.7c-0.1-0.3-0.3-0.8-0.2-1C23.4,305.9,23.4,306.3,23.3,306.7
	L23.3,306.7z M23.8,311.6L23.8,311.6c-0.4-0.1-0.6-1.9-0.1-1.7c-0.3,0.2,0,0.3-0.2,0.6C23.8,310.4,23.8,311.1,23.8,311.6L23.8,311.6
	z M23.7,263.4L23.7,263.4c-0.2-0.5-0.3-1.1-0.3-1.8C23.9,262,23.9,262.7,23.7,263.4L23.7,263.4z M23.8,222.9L23.8,222.9
	c-0.2,0.4,0.1,0.5-0.2,0.8C23.3,223.6,23.5,222.9,23.8,222.9L23.8,222.9z M23.8,222L23.8,222c-0.2-0.2-0.3-0.6-0.5-0.9
	c0.3,0.1,0.2-0.2,0.2-0.4C23.9,221,23.8,221.5,23.8,222L23.8,222z M23.6,277.8L23.6,277.8c0-0.7,0.1-1-0.1-1.5
	C24.1,276.4,24.1,277.8,23.6,277.8L23.6,277.8z M24.1,223.1L24.1,223.1c-0.1,0.2-0.1-0.6-0.5-0.5c-0.1-0.3,0.2-0.3,0.1-0.6
	C24,222.3,24.1,222.6,24.1,223.1L24.1,223.1z M24.1,314.7L24.1,314.7c-0.2,0,0-0.5-0.1-0.7c-0.2,1.2-0.5-2.1-0.1-2.1
	C23.9,313.2,24.2,313.8,24.1,314.7L24.1,314.7z M24,279.9L24,279.9c-0.4,0-0.1-0.6-0.2-0.9C24.2,279.1,24.4,279.8,24,279.9L24,279.9
	z M24.3,280.2L24.3,280.2c0,0.2,0,0.4,0,0.7C23.9,281,23.9,280.1,24.3,280.2L24.3,280.2z M24.2,269L24.2,269
	c-0.2-1.2-0.5-3.7-0.5-5.4C24,265.4,24.3,267.5,24.2,269L24.2,269z M24.2,229.8L24.2,229.8c-0.2,0.1-0.3-0.4-0.4-0.1
	c-0.4-0.2,0.1-0.6,0.3-0.9c0-0.2-0.3-0.3-0.3-0.6C24.3,228.5,24.3,229.2,24.2,229.8L24.2,229.8z M24,314.9L24,314.9
	c0.4,0.4,0.4,1,0.3,1.6c-0.3-0.1-0.1-0.8-0.3-1.2C24.4,315.5,23.9,315.2,24,314.9L24,314.9z M24.2,270.2L24.2,270.2
	c0.1-0.4-0.1-0.8,0-1C24.5,269.4,24.6,270.1,24.2,270.2L24.2,270.2z M24.5,231.3L24.5,231.3c-0.2,0.2-0.3-0.1-0.4,0.2
	c-0.2,0,0-0.3-0.1-0.5c0.3,0.1,0.2-0.2,0.3-0.3C24.4,230.9,24.5,231.1,24.5,231.3L24.5,231.3z M24.7,273.2L24.7,273.2
	c-0.4-0.4-0.3-1.2-0.3-1.7C24.8,271.8,24.7,272.6,24.7,273.2L24.7,273.2z M24.7,322.5L24.7,322.5c-0.3-0.2-0.1-0.3-0.1-0.7
	C24.7,321.7,24.8,322.5,24.7,322.5L24.7,322.5z M24.4,285.6L24.4,285.6c-0.1-0.3-0.1-0.8,0.2-1.1C25,284.6,24.6,285.4,24.4,285.6
	L24.4,285.6z M24.9,274.6L24.9,274.6c-0.5-0.2-0.1-0.6-0.3-1.1C24.9,273.7,24.9,274.1,24.9,274.6L24.9,274.6z M25,288.1L25,288.1
	c-0.3-0.1-0.4-1.3-0.1-1.6C24.7,287.1,25.1,287.7,25,288.1L25,288.1z M25.3,288.5L25.3,288.5c-0.1,0.1,0,0.5-0.4,0.4
	c0-0.2,0-0.4,0-0.6c0.1,0,0.1,0.2,0.1,0.3C25,288.5,25.1,288.5,25.3,288.5L25.3,288.5z M25.1,277.9L25.1,277.9
	c-0.2,0,0.1-0.4-0.3-0.3c0.5-0.6-0.1-1.3,0-2.3C25.2,275.9,25.3,277,25.1,277.9L25.1,277.9z M25.2,279.3L25.2,279.3c0-0.3,0-0.6,0-1
	C25.2,278.2,25.6,279.3,25.2,279.3L25.2,279.3z M25.5,242.3L25.5,242.3c-0.3,0.1-0.3-0.3-0.3-0.6C25.3,241.9,25.4,242.1,25.5,242.3
	L25.5,242.3z M25.2,246.2L25.2,246.2c0-0.3-0.1-0.8,0.2-0.9C25.6,245.5,25.9,246.4,25.2,246.2L25.2,246.2z M26.5,290.1L26.5,290.1
	c-0.7-1.5-0.4-4-0.8-5.9C26.2,286.1,26.5,288,26.5,290.1L26.5,290.1z M27.5,299.1L27.5,299.1c-0.5-0.5-0.5-1.4-0.6-2
	c-0.1-1-0.2-2.1-0.2-3.1C27.3,295.1,27.2,297.4,27.5,299.1L27.5,299.1z M28.1,269.8L28.1,269.8c-0.1-0.3-0.5-0.3-0.4-0.8
	C28.1,269,28.1,269.4,28.1,269.8L28.1,269.8z M28.1,309L28.1,309c-0.3-1.5-0.5-3.3-0.7-5.1c-0.2-1.6-0.1-3.2-0.2-4.7
	C27.7,302,28.1,306,28.1,309L28.1,309z M28.2,272.4L28.2,272.4c-0.4-0.1,0-0.3-0.1-0.7C28.2,271.5,28.4,272.3,28.2,272.4L28.2,272.4
	z M28.6,274.9L28.6,274.9c-0.1-0.2-0.5-0.2-0.4-0.6C28.5,274.3,28.6,274.6,28.6,274.9L28.6,274.9z M29.8,289.2L29.8,289.2
	c-0.2-0.1-0.2-0.4-0.1-0.7C30,288.7,29.7,288.8,29.8,289.2L29.8,289.2z M30,291.6L30,291.6c-0.5-0.3-0.3-1.3-0.3-1.8
	C30.2,290,29.7,290.9,30,291.6L30,291.6z M30.4,272.7L30.4,272.7c-0.1,0.2,0.1,0.6-0.1,0.6C30.1,273.4,30.2,272.6,30.4,272.7
	L30.4,272.7z M30.5,298.4L30.5,298.4c-0.3,0-0.2-0.6-0.2-0.9C30.6,297.6,30.5,298.1,30.5,298.4L30.5,298.4z M37.1,342.4L37.1,342.4
	c-0.6-0.2-0.2-1.2-0.2-1.8C37.1,341.1,37.1,341.7,37.1,342.4L37.1,342.4z M40.9,339.8L40.9,339.8c0.2,0,0,0.5,0.1,0.7
	C40.5,340.4,40.9,340.2,40.9,339.8L40.9,339.8z M45.2,322.2L45.2,322.2c0-0.2,0-0.4,0-0.7C45.3,321.6,45.6,322.3,45.2,322.2
	L45.2,322.2z M45.4,321.5L45.4,321.5c-0.3,0.1-0.3-0.3-0.2-0.5C45.4,321,45.4,321.2,45.4,321.5L45.4,321.5z M49.6,330.9L49.6,330.9
	c0,0.2-0.3,0.1-0.2,0.4c0.2-0.5,0.4,1.2-0.2,1.1c-0.1-0.6-0.1-1,0-1.6c0.1,0,0.2,0,0.2-0.1C49.5,330.7,49.5,330.8,49.6,330.9
	C49.4,330.9,49.5,330.9,49.6,330.9L49.6,330.9z M54.2,310.1L54.2,310.1c-0.8-0.2-0.2-2.2-0.3-2.6C54.4,307.9,54,309.5,54.2,310.1
	L54.2,310.1z M59.7,315.8L59.7,315.8c-0.1-0.4-0.1-0.8,0-1.2C60,314.9,59.9,315.5,59.7,315.8L59.7,315.8z M59.7,314.5L59.7,314.5
	c-0.5-2-0.2-4.4-0.2-6.6c0-1.4-0.5-2.9,0.1-3.9C59.5,307.4,60.2,310.8,59.7,314.5L59.7,314.5z M59.9,230.2L59.9,230.2
	c-0.3-2.2-0.7-3.3-0.6-5.5c0.5-0.1,0,0.7,0.6,0.6c0.1,0.6-0.2,0.8-0.3,1.2c0,0.2,0.2,0.2,0.4,0.2c0,0.4-0.2,0.7-0.3,1.1
	C60.4,228.4,59.9,229.5,59.9,230.2L59.9,230.2z M60.4,231.1L60.4,231.1c0,0.2,0,0.3,0,0.5c-0.3-0.2-0.2-0.5-0.6-0.2
	C59.7,231,60.1,231.2,60.4,231.1L60.4,231.1z M60.5,232.1L60.5,232.1c-0.2,0.2,0,0.4,0,0.6c-0.5,0.3-0.5-0.3-0.5-0.9
	C60.2,231.9,60.4,231.9,60.5,232.1L60.5,232.1z M60.8,241.6L60.8,241.6c-0.5-0.9-0.4-2.6-0.5-3.7C61,238.9,60.7,240.3,60.8,241.6
	L60.8,241.6z M61.2,249.9L61.2,249.9c-0.2-0.1-0.4-1-0.1-1C61.2,249.2,61.3,249.5,61.2,249.9L61.2,249.9z M64.1,313.1L64.1,313.1
	c-0.2-0.5-0.4-2-0.1-2.7C64.4,311.4,64,312.1,64.1,313.1L64.1,313.1z M64.1,315.3L64.1,315.3c-0.4-0.4-0.2-1-0.2-1.6
	c0.1,0,0.2,0,0.3,0C64.3,314.3,64.3,314.8,64.1,315.3L64.1,315.3z M65.3,268.9L65.3,268.9c-0.2-0.1-0.2-0.4-0.2-0.7
	C65.3,268.3,65.2,268.7,65.3,268.9L65.3,268.9z M65.3,267L65.3,267c-0.3,0.1-0.4-0.5-0.2-0.7C65.4,266.3,65.2,266.8,65.3,267
	L65.3,267z M65.4,289.6L65.4,289.6c-0.2-0.3-0.4-1.1-0.2-1.5C65.5,288.4,65.4,289,65.4,289.6L65.4,289.6z M65.3,285.8L65.3,285.8
	c-0.3,0.1-0.3-0.7,0-0.6C65.4,285.4,65.5,285.6,65.3,285.8L65.3,285.8z M64.8,204.9L64.8,204.9c0.1-0.9,0.1-1.2,0.3-2
	C65.5,203.3,65.8,205.2,64.8,204.9L64.8,204.9z M65.4,292.1L65.4,292.1c-0.4-0.1,0-0.5-0.1-0.9C65.6,291.5,65.4,291.6,65.4,292.1
	L65.4,292.1z M65.5,296.6L65.5,296.6c0.2,0.7,0,1.8,0.1,2.6C65,298.5,65.7,297.2,65.5,296.6L65.5,296.6z M65.9,320.3L65.9,320.3
	c0-1.3-0.1-2.6,0-3.4c0-0.2,0.1-0.1,0.2-0.1c0.2,0.5,0,1.2,0,1.8C66.1,319.3,66.4,320.1,65.9,320.3L65.9,320.3z M66.1,316.6
	L66.1,316.6c-0.5-0.8-0.2-2.9-0.3-3.5c0.3-0.1,0.3,0.4,0.3,0.6C66.2,314.5,66.1,315.9,66.1,316.6L66.1,316.6z M66.7,234.8
	L66.7,234.8c0.1,0.3-0.3,0.2-0.2,0.5c-0.2-0.1-0.3-0.5-0.1-0.7C66.5,234.6,66.5,234.8,66.7,234.8L66.7,234.8z M67.2,238.9
	L67.2,238.9c-0.1-0.2-0.3-0.4-0.3-0.7C67.2,238.2,67.3,238.8,67.2,238.9L67.2,238.9z M67.4,243.6L67.4,243.6c0,0.2,0,0.4,0,0.6
	c-0.1,0-0.2-0.2-0.3-0.2c-0.3,0.1,0.2,0.1,0.1,0.4c-0.1,0-0.2,0.1-0.2,0.2c-0.3-0.3-0.1-1-0.2-1.2C66.9,243.5,67.2,243.5,67.4,243.6
	L67.4,243.6z M67.3,241.5L67.3,241.5c0,0.5,0,1.3,0,1.9c-0.1-0.1-0.2-0.1-0.2,0c-0.2-0.3-0.1-0.2-0.4-0.3c0-0.2,0-0.4,0-0.6
	c0.4,0.2,0.5-0.5,0.3-0.7C67.1,241.7,67.2,241.7,67.3,241.5L67.3,241.5z M67.5,245.1L67.5,245.1c-0.1,0.2-0.5-0.2-0.5,0.3
	c-0.4-0.2,0-0.9,0.4-0.9C67.3,244.8,67.5,244.8,67.5,245.1L67.5,245.1z M67.4,220.3L67.4,220.3c-0.3-0.1,0-0.4,0-0.6
	C67.7,219.8,67.5,220.2,67.4,220.3L67.4,220.3z M67.6,275.3L67.6,275.3c-0.1,0.2,0.2,0.7-0.2,0.6C67.5,275.7,67.3,275.3,67.6,275.3
	L67.6,275.3z M67.9,275.5L67.9,275.5c0-0.2,0-0.3,0-0.5c0.1,0.1,0.4,0.4,0.2,0.5C68.1,275.5,68,275.5,67.9,275.5L67.9,275.5z
	 M68.3,293.4L68.3,293.4c-0.6-0.5-0.2-1.6-0.2-2.4c0-0.8-0.2-1.5-0.1-2.3c0-0.4-0.4-0.3-0.4-0.8c0.6-1.1,0.1-2.7,0.4-3.9
	C68.5,286.8,68,290.8,68.3,293.4L68.3,293.4z M68.1,277.5L68.1,277.5c-0.1-0.1-0.2-0.4-0.6-0.3c-0.2-0.7,0.4-0.7,0.4-1.2
	C68.5,276.3,68.2,277.1,68.1,277.5L68.1,277.5z M68.2,297.6L68.2,297.6c-0.3-0.8-0.2-1.8-0.1-2.7C68.5,295.6,68.4,297,68.2,297.6
	L68.2,297.6z M68.3,306.9L68.3,306.9c-0.4-0.2-0.2-1.1-0.1-1.4C68.7,305.6,68.2,306.5,68.3,306.9L68.3,306.9z M68.3,304.3
	L68.3,304.3c-0.2-0.2,0-0.7-0.1-1.1C68.5,303.6,68.5,304,68.3,304.3L68.3,304.3z M68.3,302.8L68.3,302.8c-0.3-0.6-0.1-1.8-0.1-2.4
	C68.6,301,68.5,302,68.3,302.8z"/>
</svg>
